<svg xmlns="http://www.w3.org/2000/svg" xmlns:xlink="http://www.w3.org/1999/xlink" id="processonSvg1000" viewBox="48.0 2.0 899.8 694.0" width="899.8" height="694.0"><defs id="ProcessOnDefs1001"><marker id="ProcessOnMarker1061" markerUnits="userSpaceOnUse" orient="auto" markerWidth="16.23606797749979" markerHeight="10.550836550532098" viewBox="-1.0 -1.3763819204711736 16.23606797749979 10.550836550532098" refX="-1.0" refY="3.8990363547948754"><path id="ProcessOnPath1062" d="M12.0 3.8990363547948754L0.0 7.798072709589751V0.0Z" stroke="#323232" stroke-width="2.0" fill="#323232" transform="matrix(1.0,0.0,0.0,1.0,0.0,0.0)"/></marker><marker id="ProcessOnMarker1089" markerUnits="userSpaceOnUse" orient="auto" markerWidth="16.23606797749979" markerHeight="10.550836550532098" viewBox="-1.0 -1.3763819204711736 16.23606797749979 10.550836550532098" refX="-1.0" refY="3.8990363547948754"><path id="ProcessOnPath1090" d="M12.0 3.8990363547948754L0.0 7.798072709589751V0.0Z" stroke="#323232" stroke-width="2.0" fill="#323232" transform="matrix(1.0,0.0,0.0,1.0,0.0,0.0)"/></marker><marker id="ProcessOnMarker1093" markerUnits="userSpaceOnUse" orient="auto" markerWidth="16.23606797749979" markerHeight="10.550836550532098" viewBox="-1.0 -1.3763819204711736 16.23606797749979 10.550836550532098" refX="-1.0" refY="3.8990363547948754"><path id="ProcessOnPath1094" d="M12.0 3.8990363547948754L0.0 7.798072709589751V0.0Z" stroke="#323232" stroke-width="2.0" fill="#323232" transform="matrix(1.0,0.0,0.0,1.0,0.0,0.0)"/></marker><marker id="ProcessOnMarker1097" markerUnits="userSpaceOnUse" orient="auto" markerWidth="16.23606797749979" markerHeight="10.550836550532098" viewBox="-1.0 -1.3763819204711736 16.23606797749979 10.550836550532098" refX="-1.0" refY="3.8990363547948754"><path id="ProcessOnPath1098" d="M12.0 3.8990363547948754L0.0 7.798072709589751V0.0Z" stroke="#323232" stroke-width="2.0" fill="#323232" transform="matrix(1.0,0.0,0.0,1.0,0.0,0.0)"/></marker><marker id="ProcessOnMarker1101" markerUnits="userSpaceOnUse" orient="auto" markerWidth="16.23606797749979" markerHeight="10.550836550532098" viewBox="-1.0 -1.3763819204711736 16.23606797749979 10.550836550532098" refX="-1.0" refY="3.8990363547948754"><path id="ProcessOnPath1102" d="M12.0 3.8990363547948754L0.0 7.798072709589751V0.0Z" stroke="#323232" stroke-width="2.0" fill="#323232" transform="matrix(1.0,0.0,0.0,1.0,0.0,0.0)"/></marker><marker id="ProcessOnMarker1105" markerUnits="userSpaceOnUse" orient="auto" markerWidth="16.23606797749979" markerHeight="10.550836550532098" viewBox="-1.0 -1.3763819204711736 16.23606797749979 10.550836550532098" refX="-1.0" refY="3.8990363547948754"><path id="ProcessOnPath1106" d="M12.0 3.8990363547948754L0.0 7.798072709589751V0.0Z" stroke="#323232" stroke-width="2.0" fill="#323232" transform="matrix(1.0,0.0,0.0,1.0,0.0,0.0)"/></marker><marker id="ProcessOnMarker1109" markerUnits="userSpaceOnUse" orient="auto" markerWidth="16.23606797749979" markerHeight="10.550836550532098" viewBox="-1.0 -1.3763819204711736 16.23606797749979 10.550836550532098" refX="-1.0" refY="3.8990363547948754"><path id="ProcessOnPath1110" d="M12.0 3.8990363547948754L0.0 7.798072709589751V0.0Z" stroke="#323232" stroke-width="2.0" fill="#323232" transform="matrix(1.0,0.0,0.0,1.0,0.0,0.0)"/></marker><marker id="ProcessOnMarker1145" markerUnits="userSpaceOnUse" orient="auto" markerWidth="16.23606797749979" markerHeight="10.550836550532098" viewBox="-1.0 -1.3763819204711736 16.23606797749979 10.550836550532098" refX="-1.0" refY="3.8990363547948754"><path id="ProcessOnPath1146" d="M12.0 3.8990363547948754L0.0 7.798072709589751V0.0Z" stroke="#323232" stroke-width="2.0" fill="#323232" transform="matrix(1.0,0.0,0.0,1.0,0.0,0.0)"/></marker><marker id="ProcessOnMarker1149" markerUnits="userSpaceOnUse" orient="auto" markerWidth="16.23606797749979" markerHeight="10.550836550532098" viewBox="-1.0 -1.3763819204711736 16.23606797749979 10.550836550532098" refX="-1.0" refY="3.8990363547948754"><path id="ProcessOnPath1150" d="M12.0 3.8990363547948754L0.0 7.798072709589751V0.0Z" stroke="#323232" stroke-width="2.0" fill="#323232" transform="matrix(1.0,0.0,0.0,1.0,0.0,0.0)"/></marker><marker id="ProcessOnMarker1153" markerUnits="userSpaceOnUse" orient="auto" markerWidth="16.23606797749979" markerHeight="10.550836550532098" viewBox="-1.0 -1.3763819204711736 16.23606797749979 10.550836550532098" refX="-1.0" refY="3.8990363547948754"><path id="ProcessOnPath1154" d="M12.0 3.8990363547948754L0.0 7.798072709589751V0.0Z" stroke="#323232" stroke-width="2.0" fill="#323232" transform="matrix(1.0,0.0,0.0,1.0,0.0,0.0)"/></marker><marker id="ProcessOnMarker1157" markerUnits="userSpaceOnUse" orient="auto" markerWidth="16.23606797749979" markerHeight="10.550836550532098" viewBox="-1.0 -1.3763819204711736 16.23606797749979 10.550836550532098" refX="-1.0" refY="3.8990363547948754"><path id="ProcessOnPath1158" d="M12.0 3.8990363547948754L0.0 7.798072709589751V0.0Z" stroke="#323232" stroke-width="2.0" fill="#323232" transform="matrix(1.0,0.0,0.0,1.0,0.0,0.0)"/></marker></defs><g id="ProcessOnG1002"><path id="ProcessOnPath1003" d="M48.0 2.0H947.8V696.0H48.0V2.0Z" fill="none"/><g id="ProcessOnG1004"><g id="ProcessOnG1005" transform="matrix(1.0,0.0,0.0,1.0,223.0,548.0)" opacity="1.0"><path id="ProcessOnPath1006" d="M0.0 4.0Q0.0 0.0 4.0 0.0L80.0 0.0Q84.0 0.0 84.0 4.0L84.0 40.0Q84.0 44.0 80.0 44.0L4.0 44.0Q0.0 44.0 0.0 40.0Z" stroke="#323232" stroke-width="2.0" stroke-dasharray="none" opacity="1.0" fill="#ffe6cc"/><g id="ProcessOnG1007" transform="matrix(1.0,0.0,0.0,1.0,10.0,12.0)"><text id="ProcessOnText1008" fill="#000000" font-size="16" x="31.0" y="16.4" font-family="微软雅黑" font-weight="normal" font-style="normal" text-decoration="none" family="微软雅黑" text-anchor="middle" size="16">TValue</text></g></g><g id="ProcessOnG1009" transform="matrix(1.0,0.0,0.0,1.0,223.0,504.0)" opacity="1.0"><path id="ProcessOnPath1010" d="M0.0 4.0Q0.0 0.0 4.0 0.0L80.0 0.0Q84.0 0.0 84.0 4.0L84.0 40.0Q84.0 44.0 80.0 44.0L4.0 44.0Q0.0 44.0 0.0 40.0Z" stroke="#323232" stroke-width="2.0" stroke-dasharray="none" opacity="1.0" fill="#ffffff"/><g id="ProcessOnG1011" transform="matrix(1.0,0.0,0.0,1.0,10.0,12.0)"><text id="ProcessOnText1012" fill="#000000" font-size="16" x="31.0" y="16.4" font-family="微软雅黑" font-weight="normal" font-style="normal" text-decoration="none" family="微软雅黑" text-anchor="middle" size="16">...</text></g></g><g id="ProcessOnG1013" transform="matrix(1.0,0.0,0.0,1.0,223.0,460.0)" opacity="1.0"><path id="ProcessOnPath1014" d="M0.0 4.0Q0.0 0.0 4.0 0.0L80.0 0.0Q84.0 0.0 84.0 4.0L84.0 40.0Q84.0 44.0 80.0 44.0L4.0 44.0Q0.0 44.0 0.0 40.0Z" stroke="#323232" stroke-width="2.0" stroke-dasharray="none" opacity="1.0" fill="#ffe6cc"/><g id="ProcessOnG1015" transform="matrix(1.0,0.0,0.0,1.0,10.0,12.0)"><text id="ProcessOnText1016" fill="#000000" font-size="16" x="31.0" y="16.4" font-family="微软雅黑" font-weight="normal" font-style="normal" text-decoration="none" family="微软雅黑" text-anchor="middle" size="16">TValue</text></g></g><g id="ProcessOnG1017" transform="matrix(1.0,0.0,0.0,1.0,223.0,416.0)" opacity="1.0"><path id="ProcessOnPath1018" d="M0.0 4.0Q0.0 0.0 4.0 0.0L80.0 0.0Q84.0 0.0 84.0 4.0L84.0 40.0Q84.0 44.0 80.0 44.0L4.0 44.0Q0.0 44.0 0.0 40.0Z" stroke="#323232" stroke-width="2.0" stroke-dasharray="none" opacity="1.0" fill="#ffffff"/><g id="ProcessOnG1019" transform="matrix(1.0,0.0,0.0,1.0,10.0,12.0)"><text id="ProcessOnText1020" fill="#000000" font-size="16" x="31.0" y="16.4" font-family="微软雅黑" font-weight="normal" font-style="normal" text-decoration="none" family="微软雅黑" text-anchor="middle" size="16">...</text></g></g><g id="ProcessOnG1021" transform="matrix(1.0,0.0,0.0,1.0,223.0,372.0)" opacity="1.0"><path id="ProcessOnPath1022" d="M0.0 4.0Q0.0 0.0 4.0 0.0L80.0 0.0Q84.0 0.0 84.0 4.0L84.0 40.0Q84.0 44.0 80.0 44.0L4.0 44.0Q0.0 44.0 0.0 40.0Z" stroke="#323232" stroke-width="2.0" stroke-dasharray="none" opacity="1.0" fill="#ffe6cc"/><g id="ProcessOnG1023" transform="matrix(1.0,0.0,0.0,1.0,10.0,12.0)"><text id="ProcessOnText1024" fill="#000000" font-size="16" x="31.0" y="16.4" font-family="微软雅黑" font-weight="normal" font-style="normal" text-decoration="none" family="微软雅黑" text-anchor="middle" size="16">TValue</text></g></g><g id="ProcessOnG1025" transform="matrix(1.0,0.0,0.0,1.0,223.0,328.0)" opacity="1.0"><path id="ProcessOnPath1026" d="M0.0 4.0Q0.0 0.0 4.0 0.0L80.0 0.0Q84.0 0.0 84.0 4.0L84.0 40.0Q84.0 44.0 80.0 44.0L4.0 44.0Q0.0 44.0 0.0 40.0Z" stroke="#323232" stroke-width="2.0" stroke-dasharray="none" opacity="1.0" fill="#ffffff"/><g id="ProcessOnG1027" transform="matrix(1.0,0.0,0.0,1.0,10.0,12.0)"><text id="ProcessOnText1028" fill="#000000" font-size="16" x="31.0" y="16.4" font-family="微软雅黑" font-weight="normal" font-style="normal" text-decoration="none" family="微软雅黑" text-anchor="middle" size="16">...</text></g></g><g id="ProcessOnG1029" transform="matrix(1.0,0.0,0.0,1.0,223.0,284.0)" opacity="1.0"><path id="ProcessOnPath1030" d="M0.0 4.0Q0.0 0.0 4.0 0.0L80.0 0.0Q84.0 0.0 84.0 4.0L84.0 40.0Q84.0 44.0 80.0 44.0L4.0 44.0Q0.0 44.0 0.0 40.0Z" stroke="#323232" stroke-width="2.0" stroke-dasharray="none" opacity="1.0" fill="#ffe6cc"/><g id="ProcessOnG1031" transform="matrix(1.0,0.0,0.0,1.0,10.0,12.0)"><text id="ProcessOnText1032" fill="#000000" font-size="16" x="31.0" y="16.4" font-family="微软雅黑" font-weight="normal" font-style="normal" text-decoration="none" family="微软雅黑" text-anchor="middle" size="16">TValue</text></g></g><g id="ProcessOnG1033" transform="matrix(1.0,0.0,0.0,1.0,223.0,240.0)" opacity="1.0"><path id="ProcessOnPath1034" d="M0.0 4.0Q0.0 0.0 4.0 0.0L80.0 0.0Q84.0 0.0 84.0 4.0L84.0 40.0Q84.0 44.0 80.0 44.0L4.0 44.0Q0.0 44.0 0.0 40.0Z" stroke="#323232" stroke-width="2.0" stroke-dasharray="none" opacity="1.0" fill="#ffffff"/><g id="ProcessOnG1035" transform="matrix(1.0,0.0,0.0,1.0,10.0,12.0)"><text id="ProcessOnText1036" fill="#000000" font-size="16" x="31.0" y="16.4" font-family="微软雅黑" font-weight="normal" font-style="normal" text-decoration="none" family="微软雅黑" text-anchor="middle" size="16">...</text></g></g><g id="ProcessOnG1037" transform="matrix(1.0,0.0,0.0,1.0,90.0,610.0)" opacity="1.0"><path id="ProcessOnPath1038" d="M0.0 0.0L108.0 0.0L108.0 40.0L0.0 40.0Z" stroke="none" stroke-width="0.0" stroke-dasharray="none" opacity="1.0" fill="none"/></g><g id="ProcessOnG1039" transform="matrix(1.0,0.0,0.0,1.0,68.0,592.0)" opacity="1.0"><path id="ProcessOnPath1040" d="M0.0 0.0L108.0 0.0L108.0 40.0L0.0 40.0Z" stroke="#323232" stroke-width="2.0" stroke-dasharray="none" opacity="1.0" fill="#ffcccc"/><g id="ProcessOnG1041" transform="matrix(1.0,0.0,0.0,1.0,10.0,8.75)"><text id="ProcessOnText1042" fill="#000000" font-size="18" x="43.0" y="18.45" font-family="微软雅黑" font-weight="normal" font-style="normal" text-decoration="none" family="微软雅黑" text-anchor="middle" size="18">L-&gt;stack</text></g></g><g id="ProcessOnG1043" transform="matrix(1.0,0.0,0.0,1.0,74.5,128.0)" opacity="1.0"><path id="ProcessOnPath1044" d="M0.0 0.0L144.0 0.0L144.0 40.0L0.0 40.0Z" stroke="#323232" stroke-width="2.0" stroke-dasharray="none" opacity="1.0" fill="#ffcce6"/><g id="ProcessOnG1045" transform="matrix(1.0,0.0,0.0,1.0,10.0,8.75)"><text id="ProcessOnText1046" fill="#000000" font-size="18" x="61.0" y="18.45" font-family="微软雅黑" font-weight="normal" font-style="normal" text-decoration="none" family="微软雅黑" text-anchor="middle" size="18">L-&gt;openupval</text></g></g><g id="ProcessOnG1047" transform="matrix(1.0,0.0,0.0,1.0,312.0,132.0)" opacity="1.0"><path id="ProcessOnPath1048" d="M0.0 4.0Q0.0 0.0 4.0 0.0L96.0 0.0Q100.0 0.0 100.0 4.0L100.0 32.0Q100.0 36.0 96.0 36.0L4.0 36.0Q0.0 36.0 0.0 32.0Z" stroke="#323232" stroke-width="2.0" stroke-dasharray="none" opacity="1.0" fill="#ccffff"/><g id="ProcessOnG1049" transform="matrix(1.0,0.0,0.0,1.0,10.0,8.0)"><text id="ProcessOnText1050" fill="#000000" font-size="16" x="39.0" y="16.4" font-family="微软雅黑" font-weight="normal" font-style="normal" text-decoration="none" family="微软雅黑" text-anchor="middle" size="16">TValue*</text></g></g><g id="ProcessOnG1051" transform="matrix(1.0,0.0,0.0,1.0,312.0,96.0)" opacity="1.0"><path id="ProcessOnPath1052" d="M0.0 4.0Q0.0 0.0 4.0 0.0L96.0 0.0Q100.0 0.0 100.0 4.0L100.0 32.0Q100.0 36.0 96.0 36.0L4.0 36.0Q0.0 36.0 0.0 32.0Z" stroke="#323232" stroke-width="2.0" stroke-dasharray="none" opacity="1.0" fill="#e5ccff"/><g id="ProcessOnG1053" transform="matrix(1.0,0.0,0.0,1.0,10.0,8.0)"><text id="ProcessOnText1054" fill="#000000" font-size="16" x="39.0" y="16.4" font-family="微软雅黑" font-weight="normal" font-style="normal" text-decoration="none" family="微软雅黑" text-anchor="middle" size="16">refcount</text></g></g><g id="ProcessOnG1055" transform="matrix(1.0,0.0,0.0,1.0,312.0,60.0)" opacity="1.0"><path id="ProcessOnPath1056" d="M0.0 4.0Q0.0 0.0 4.0 0.0L96.0 0.0Q100.0 0.0 100.0 4.0L100.0 32.0Q100.0 36.0 96.0 36.0L4.0 36.0Q0.0 36.0 0.0 32.0Z" stroke="#323232" stroke-width="2.0" stroke-dasharray="none" opacity="1.0" fill="#ffcc99"/><g id="ProcessOnG1057" transform="matrix(1.0,0.0,0.0,1.0,10.0,8.0)"><text id="ProcessOnText1058" fill="#000000" font-size="16" x="39.0" y="16.4" font-family="微软雅黑" font-weight="normal" font-style="normal" text-decoration="none" family="微软雅黑" text-anchor="middle" size="16">next</text></g></g><g id="ProcessOnG1059"><path id="ProcessOnPath1060" d="M362.0 168.0C362.0 227.422554640473 366.422554640473 306.0 322.2360679774998 306.0" stroke="#323232" stroke-width="2.0" stroke-dasharray="none" fill="none" marker-end="url(#ProcessOnMarker1061)"/></g><g id="ProcessOnG1063" transform="matrix(1.0,0.0,0.0,1.0,488.0,132.0)" opacity="1.0"><path id="ProcessOnPath1064" d="M0.0 4.0Q0.0 0.0 4.0 0.0L96.0 0.0Q100.0 0.0 100.0 4.0L100.0 32.0Q100.0 36.0 96.0 36.0L4.0 36.0Q0.0 36.0 0.0 32.0Z" stroke="#323232" stroke-width="2.0" stroke-dasharray="none" opacity="1.0" fill="#ccffff"/><g id="ProcessOnG1065" transform="matrix(1.0,0.0,0.0,1.0,10.0,8.0)"><text id="ProcessOnText1066" fill="#000000" font-size="16" x="39.0" y="16.4" font-family="微软雅黑" font-weight="normal" font-style="normal" text-decoration="none" family="微软雅黑" text-anchor="middle" size="16">TValue*</text></g></g><g id="ProcessOnG1067" transform="matrix(1.0,0.0,0.0,1.0,488.0,96.0)" opacity="1.0"><path id="ProcessOnPath1068" d="M0.0 4.0Q0.0 0.0 4.0 0.0L96.0 0.0Q100.0 0.0 100.0 4.0L100.0 32.0Q100.0 36.0 96.0 36.0L4.0 36.0Q0.0 36.0 0.0 32.0Z" stroke="#323232" stroke-width="2.0" stroke-dasharray="none" opacity="1.0" fill="#e5ccff"/><g id="ProcessOnG1069" transform="matrix(1.0,0.0,0.0,1.0,10.0,8.0)"><text id="ProcessOnText1070" fill="#000000" font-size="16" x="39.0" y="16.4" font-family="微软雅黑" font-weight="normal" font-style="normal" text-decoration="none" family="微软雅黑" text-anchor="middle" size="16">refcount</text></g></g><g id="ProcessOnG1071" transform="matrix(1.0,0.0,0.0,1.0,488.0,60.0)" opacity="1.0"><path id="ProcessOnPath1072" d="M0.0 4.0Q0.0 0.0 4.0 0.0L96.0 0.0Q100.0 0.0 100.0 4.0L100.0 32.0Q100.0 36.0 96.0 36.0L4.0 36.0Q0.0 36.0 0.0 32.0Z" stroke="#323232" stroke-width="2.0" stroke-dasharray="none" opacity="1.0" fill="#ffcc99"/><g id="ProcessOnG1073" transform="matrix(1.0,0.0,0.0,1.0,10.0,8.0)"><text id="ProcessOnText1074" fill="#000000" font-size="16" x="39.0" y="16.4" font-family="微软雅黑" font-weight="normal" font-style="normal" text-decoration="none" family="微软雅黑" text-anchor="middle" size="16">next</text></g></g><g id="ProcessOnG1075" transform="matrix(1.0,0.0,0.0,1.0,662.0,132.0)" opacity="1.0"><path id="ProcessOnPath1076" d="M0.0 4.0Q0.0 0.0 4.0 0.0L96.0 0.0Q100.0 0.0 100.0 4.0L100.0 32.0Q100.0 36.0 96.0 36.0L4.0 36.0Q0.0 36.0 0.0 32.0Z" stroke="#323232" stroke-width="2.0" stroke-dasharray="none" opacity="1.0" fill="#ccffff"/><g id="ProcessOnG1077" transform="matrix(1.0,0.0,0.0,1.0,10.0,8.0)"><text id="ProcessOnText1078" fill="#000000" font-size="16" x="39.0" y="16.4" font-family="微软雅黑" font-weight="normal" font-style="normal" text-decoration="none" family="微软雅黑" text-anchor="middle" size="16">TValue*</text></g></g><g id="ProcessOnG1079" transform="matrix(1.0,0.0,0.0,1.0,662.0,96.0)" opacity="1.0"><path id="ProcessOnPath1080" d="M0.0 4.0Q0.0 0.0 4.0 0.0L96.0 0.0Q100.0 0.0 100.0 4.0L100.0 32.0Q100.0 36.0 96.0 36.0L4.0 36.0Q0.0 36.0 0.0 32.0Z" stroke="#323232" stroke-width="2.0" stroke-dasharray="none" opacity="1.0" fill="#e5ccff"/><g id="ProcessOnG1081" transform="matrix(1.0,0.0,0.0,1.0,10.0,8.0)"><text id="ProcessOnText1082" fill="#000000" font-size="16" x="39.0" y="16.4" font-family="微软雅黑" font-weight="normal" font-style="normal" text-decoration="none" family="微软雅黑" text-anchor="middle" size="16">refcount</text></g></g><g id="ProcessOnG1083" transform="matrix(1.0,0.0,0.0,1.0,662.0,60.0)" opacity="1.0"><path id="ProcessOnPath1084" d="M0.0 4.0Q0.0 0.0 4.0 0.0L96.0 0.0Q100.0 0.0 100.0 4.0L100.0 32.0Q100.0 36.0 96.0 36.0L4.0 36.0Q0.0 36.0 0.0 32.0Z" stroke="#323232" stroke-width="2.0" stroke-dasharray="none" opacity="1.0" fill="#ffcc99"/><g id="ProcessOnG1085" transform="matrix(1.0,0.0,0.0,1.0,10.0,8.0)"><text id="ProcessOnText1086" fill="#000000" font-size="16" x="39.0" y="16.4" font-family="微软雅黑" font-weight="normal" font-style="normal" text-decoration="none" family="微软雅黑" text-anchor="middle" size="16">next</text></g></g><g id="ProcessOnG1087"><path id="ProcessOnPath1088" d="M218.5 148.0C257.1867199822758 148.0 286.0585715210408 193.9414284789592 302.6406865768638 177.3593134231362" stroke="#323232" stroke-width="2.0" stroke-dasharray="none" fill="none" marker-end="url(#ProcessOnMarker1089)"/></g><g id="ProcessOnG1091"><path id="ProcessOnPath1092" d="M176.0 612.0C197.17547493628607 612.0 209.44089164007946 605.5591083599205 213.6406865768638 601.3593134231362" stroke="#323232" stroke-width="2.0" stroke-dasharray="none" fill="none" marker-end="url(#ProcessOnMarker1093)"/></g><g id="ProcessOnG1095"><path id="ProcessOnPath1096" d="M412.0 78.0C458.8243457169362 78.0 448.64507951625484 189.41217285846813 476.00133050040523 173.61803398874991" stroke="#323232" stroke-width="2.0" stroke-dasharray="none" fill="none" marker-end="url(#ProcessOnMarker1097)"/></g><g id="ProcessOnG1099"><path id="ProcessOnPath1100" d="M588.0 78.0C634.4457136083886 78.0 627.2507413991933 196.64079118208903 651.1587170064481 176.57961766784604" stroke="#323232" stroke-width="2.0" stroke-dasharray="none" fill="none" marker-end="url(#ProcessOnMarker1101)"/></g><g id="ProcessOnG1103"><path id="ProcessOnPath1104" d="M538.0 168.0C538.0 297.2668557674395 436.2668557674395 394.0 322.2360679774998 394.0" stroke="#323232" stroke-width="2.0" stroke-dasharray="none" fill="none" marker-end="url(#ProcessOnMarker1105)"/></g><g id="ProcessOnG1107"><path id="ProcessOnPath1108" d="M712.0 168.0C712.0 372.9862434408709 511.9862434408709 482.0 322.2360679774998 482.0" stroke="#323232" stroke-width="2.0" stroke-dasharray="none" fill="none" marker-end="url(#ProcessOnMarker1109)"/></g><g id="ProcessOnG1111" transform="matrix(1.0,0.0,0.0,1.0,491.0,632.0)" opacity="1.0"><path id="ProcessOnPath1112" d="M0.0 0.0L108.0 0.0L108.0 40.0L0.0 40.0Z" stroke="#323232" stroke-width="2.0" stroke-dasharray="none" opacity="1.0" fill="#ccffe6"/><g id="ProcessOnG1113" transform="matrix(1.0,0.0,0.0,1.0,10.0,8.75)"><text id="ProcessOnText1114" fill="#000000" font-size="18" x="43.0" y="18.45" font-family="微软雅黑" font-weight="normal" font-style="normal" text-decoration="none" family="微软雅黑" text-anchor="middle" size="18">LClosure</text></g></g><g id="ProcessOnG1115" transform="matrix(1.0,0.0,0.0,1.0,639.0,592.0)" opacity="1.0"><path id="ProcessOnPath1116" d="M0.0 4.0Q0.0 0.0 4.0 0.0L96.0 0.0Q100.0 0.0 100.0 4.0L100.0 32.0Q100.0 36.0 96.0 36.0L4.0 36.0Q0.0 36.0 0.0 32.0Z" stroke="#323232" stroke-width="2.0" stroke-dasharray="none" opacity="1.0" fill="#cce5ff"/><g id="ProcessOnG1117" transform="matrix(1.0,0.0,0.0,1.0,10.0,8.0)"><text id="ProcessOnText1118" fill="#000000" font-size="16" x="39.0" y="16.4" font-family="微软雅黑" font-weight="normal" font-style="normal" text-decoration="none" family="微软雅黑" text-anchor="middle" size="16">UpVal*</text></g></g><g id="ProcessOnG1119" transform="matrix(1.0,0.0,0.0,1.0,639.0,556.0)" opacity="1.0"><path id="ProcessOnPath1120" d="M0.0 4.0Q0.0 0.0 4.0 0.0L96.0 0.0Q100.0 0.0 100.0 4.0L100.0 32.0Q100.0 36.0 96.0 36.0L4.0 36.0Q0.0 36.0 0.0 32.0Z" stroke="#323232" stroke-width="2.0" stroke-dasharray="none" opacity="1.0" fill="#cce5ff"/><g id="ProcessOnG1121" transform="matrix(1.0,0.0,0.0,1.0,10.0,8.0)"><text id="ProcessOnText1122" fill="#000000" font-size="16" x="39.0" y="16.4" font-family="微软雅黑" font-weight="normal" font-style="normal" text-decoration="none" family="微软雅黑" text-anchor="middle" size="16">UpVal*</text></g></g><g id="ProcessOnG1123" transform="matrix(1.0,0.0,0.0,1.0,639.0,520.0)" opacity="1.0"><path id="ProcessOnPath1124" d="M0.0 4.0Q0.0 0.0 4.0 0.0L96.0 0.0Q100.0 0.0 100.0 4.0L100.0 32.0Q100.0 36.0 96.0 36.0L4.0 36.0Q0.0 36.0 0.0 32.0Z" stroke="#323232" stroke-width="2.0" stroke-dasharray="none" opacity="1.0" fill="#cce5ff"/><g id="ProcessOnG1125" transform="matrix(1.0,0.0,0.0,1.0,10.0,8.0)"><text id="ProcessOnText1126" fill="#000000" font-size="16" x="39.0" y="16.4" font-family="微软雅黑" font-weight="normal" font-style="normal" text-decoration="none" family="微软雅黑" text-anchor="middle" size="16">UpVal*</text></g></g><g id="ProcessOnG1127" transform="matrix(1.0,0.0,0.0,1.0,639.0,484.0)" opacity="1.0"><path id="ProcessOnPath1128" d="M0.0 4.0Q0.0 0.0 4.0 0.0L96.0 0.0Q100.0 0.0 100.0 4.0L100.0 32.0Q100.0 36.0 96.0 36.0L4.0 36.0Q0.0 36.0 0.0 32.0Z" stroke="#323232" stroke-width="2.0" stroke-dasharray="none" opacity="1.0" fill="#cce5ff"/><g id="ProcessOnG1129" transform="matrix(1.0,0.0,0.0,1.0,10.0,8.0)"><text id="ProcessOnText1130" fill="#000000" font-size="16" x="39.0" y="16.4" font-family="微软雅黑" font-weight="normal" font-style="normal" text-decoration="none" family="微软雅黑" text-anchor="middle" size="16">UpVal*</text></g></g><g id="ProcessOnG1131" transform="matrix(1.0,0.0,0.0,1.0,799.0,380.0)" opacity="1.0"><path id="ProcessOnPath1132" d="M0.0 4.0Q0.0 0.0 4.0 0.0L96.0 0.0Q100.0 0.0 100.0 4.0L100.0 32.0Q100.0 36.0 96.0 36.0L4.0 36.0Q0.0 36.0 0.0 32.0Z" stroke="#323232" stroke-width="2.0" stroke-dasharray="none" opacity="1.0" fill="#ccffff"/><g id="ProcessOnG1133" transform="matrix(1.0,0.0,0.0,1.0,10.0,8.0)"><text id="ProcessOnText1134" fill="#000000" font-size="16" x="39.0" y="16.4" font-family="微软雅黑" font-weight="normal" font-style="normal" text-decoration="none" family="微软雅黑" text-anchor="middle" size="16">TValue*</text></g></g><g id="ProcessOnG1135" transform="matrix(1.0,0.0,0.0,1.0,799.0,344.0)" opacity="1.0"><path id="ProcessOnPath1136" d="M0.0 4.0Q0.0 0.0 4.0 0.0L96.0 0.0Q100.0 0.0 100.0 4.0L100.0 32.0Q100.0 36.0 96.0 36.0L4.0 36.0Q0.0 36.0 0.0 32.0Z" stroke="#323232" stroke-width="2.0" stroke-dasharray="none" opacity="1.0" fill="#e5ccff"/><g id="ProcessOnG1137" transform="matrix(1.0,0.0,0.0,1.0,10.0,8.0)"><text id="ProcessOnText1138" fill="#000000" font-size="16" x="39.0" y="16.4" font-family="微软雅黑" font-weight="normal" font-style="normal" text-decoration="none" family="微软雅黑" text-anchor="middle" size="16">refcount</text></g></g><g id="ProcessOnG1139" transform="matrix(1.0,0.0,0.0,1.0,799.0,308.0)" opacity="1.0"><path id="ProcessOnPath1140" d="M0.0 4.0Q0.0 0.0 4.0 0.0L96.0 0.0Q100.0 0.0 100.0 4.0L100.0 32.0Q100.0 36.0 96.0 36.0L4.0 36.0Q0.0 36.0 0.0 32.0Z" stroke="#323232" stroke-width="2.0" stroke-dasharray="none" opacity="1.0" fill="#ffe6cc"/><g id="ProcessOnG1141" transform="matrix(1.0,0.0,0.0,1.0,10.0,8.0)"><text id="ProcessOnText1142" fill="#000000" font-size="16" x="39.0" y="16.4" font-family="微软雅黑" font-weight="normal" font-style="normal" text-decoration="none" family="微软雅黑" text-anchor="middle" size="16">TValue</text></g></g><g id="ProcessOnG1143"><path id="ProcessOnPath1144" d="M599.0 652.0C618.708740069024 652.0 629.9898368516443 642.8678465407454 632.5552561708676 639.204048053539" stroke="#323232" stroke-width="2.0" stroke-dasharray="none" fill="none" marker-end="url(#ProcessOnMarker1145)"/></g><g id="ProcessOnG1147"><path id="ProcessOnPath1148" d="M639.0 538.0C464.4270655151579 538.0 495.786467242421 318.58651986571647 416.1180339887499 180.59674571094808" stroke="#323232" stroke-width="2.0" stroke-dasharray="none" fill="none" marker-end="url(#ProcessOnMarker1149)"/></g><g id="ProcessOnG1151"><path id="ProcessOnPath1152" d="M739.0 574.0C807.8713685668777 574.0 743.2221817340396 452.35584127650696 787.157647857883 421.5918967018345" stroke="#323232" stroke-width="2.0" stroke-dasharray="none" fill="none" marker-end="url(#ProcessOnMarker1153)"/></g><g id="ProcessOnG1155"><path id="ProcessOnPath1156" d="M899.0 398.0C927.8 398.0 927.8 326.0 914.2360679774998 326.0" stroke="#323232" stroke-width="2.0" stroke-dasharray="none" fill="none" marker-end="url(#ProcessOnMarker1157)"/></g><g id="ProcessOnG1159" transform="matrix(1.0,0.0,0.0,1.0,212.0,594.0)" opacity="1.0"><path id="ProcessOnPath1160" d="M0.0 0.0L100.0 0.0L100.0 38.0L0.0 38.0Z" stroke="none" stroke-width="0.0" stroke-dasharray="none" opacity="1.0" fill="none"/><g id="ProcessOnG1161" transform="matrix(1.0,0.0,0.0,1.0,0.0,9.0)"><text id="ProcessOnText1162" fill="#000000" font-size="16" x="49.0" y="16.4" font-family="微软雅黑" font-weight="normal" font-style="normal" text-decoration="none" family="微软雅黑" text-anchor="middle" size="16">Lua栈底</text></g></g><g id="ProcessOnG1163" transform="matrix(1.0,0.0,0.0,1.0,215.0,202.0)" opacity="1.0"><path id="ProcessOnPath1164" d="M0.0 0.0L100.0 0.0L100.0 38.0L0.0 38.0Z" stroke="none" stroke-width="0.0" stroke-dasharray="none" opacity="1.0" fill="none"/><g id="ProcessOnG1165" transform="matrix(1.0,0.0,0.0,1.0,0.0,9.0)"><text id="ProcessOnText1166" fill="#000000" font-size="16" x="49.0" y="16.4" font-family="微软雅黑" font-weight="normal" font-style="normal" text-decoration="none" family="微软雅黑" text-anchor="middle" size="16">Lua栈顶</text></g></g><g id="ProcessOnG1167" transform="matrix(1.0,0.0,0.0,1.0,636.0,637.0)" opacity="1.0"><path id="ProcessOnPath1168" d="M0.0 0.0L100.0 0.0L100.0 38.0L0.0 38.0Z" stroke="none" stroke-width="0.0" stroke-dasharray="none" opacity="1.0" fill="none"/><g id="ProcessOnG1169" transform="matrix(1.0,0.0,0.0,1.0,0.0,-1.0)"><text id="ProcessOnText1170" fill="#000000" font-size="16" x="49.0" y="16.4" font-family="微软雅黑" font-weight="normal" font-style="normal" text-decoration="none" family="微软雅黑" text-anchor="middle" size="16">闭包中Upval</text><text id="ProcessOnText1171" fill="#000000" font-size="16" x="49.0" y="36.4" font-family="微软雅黑" font-weight="normal" font-style="normal" text-decoration="none" family="微软雅黑" text-anchor="middle" size="16">ue数组</text></g></g><g id="ProcessOnG1172" transform="matrix(1.0,0.0,0.0,1.0,799.0,270.0)" opacity="1.0"><path id="ProcessOnPath1173" d="M0.0 0.0L100.0 0.0L100.0 38.0L0.0 38.0Z" stroke="none" stroke-width="0.0" stroke-dasharray="none" opacity="1.0" fill="none"/><g id="ProcessOnG1174" transform="matrix(1.0,0.0,0.0,1.0,0.0,9.0)"><text id="ProcessOnText1175" fill="#000000" font-size="16" x="49.0" y="16.4" font-family="微软雅黑" font-weight="normal" font-style="normal" text-decoration="none" family="微软雅黑" text-anchor="middle" size="16">UpVal</text></g></g><g id="ProcessOnG1176" transform="matrix(1.0,0.0,0.0,1.0,312.0,22.0)" opacity="1.0"><path id="ProcessOnPath1177" d="M0.0 0.0L100.0 0.0L100.0 38.0L0.0 38.0Z" stroke="none" stroke-width="0.0" stroke-dasharray="none" opacity="1.0" fill="none"/><g id="ProcessOnG1178" transform="matrix(1.0,0.0,0.0,1.0,0.0,9.0)"><text id="ProcessOnText1179" fill="#000000" font-size="16" x="49.0" y="16.4" font-family="微软雅黑" font-weight="normal" font-style="normal" text-decoration="none" family="微软雅黑" text-anchor="middle" size="16">UpVal</text></g></g><g id="ProcessOnG1180" transform="matrix(1.0,0.0,0.0,1.0,488.0,22.0)" opacity="1.0"><path id="ProcessOnPath1181" d="M0.0 0.0L100.0 0.0L100.0 38.0L0.0 38.0Z" stroke="none" stroke-width="0.0" stroke-dasharray="none" opacity="1.0" fill="none"/><g id="ProcessOnG1182" transform="matrix(1.0,0.0,0.0,1.0,0.0,9.0)"><text id="ProcessOnText1183" fill="#000000" font-size="16" x="49.0" y="16.4" font-family="微软雅黑" font-weight="normal" font-style="normal" text-decoration="none" family="微软雅黑" text-anchor="middle" size="16">UpVal</text></g></g><g id="ProcessOnG1184" transform="matrix(1.0,0.0,0.0,1.0,662.0,22.0)" opacity="1.0"><path id="ProcessOnPath1185" d="M0.0 0.0L100.0 0.0L100.0 38.0L0.0 38.0Z" stroke="none" stroke-width="0.0" stroke-dasharray="none" opacity="1.0" fill="none"/><g id="ProcessOnG1186" transform="matrix(1.0,0.0,0.0,1.0,0.0,9.0)"><text id="ProcessOnText1187" fill="#000000" font-size="16" x="49.0" y="16.4" font-family="微软雅黑" font-weight="normal" font-style="normal" text-decoration="none" family="微软雅黑" text-anchor="middle" size="16">UpVal</text></g></g><g id="ProcessOnG1188" transform="matrix(1.0,0.0,0.0,1.0,68.0,76.0)" opacity="1.0"><path id="ProcessOnPath1189" d="M0.0 0.0L157.0 0.0L157.0 52.0L0.0 52.0Z" stroke="none" stroke-width="0.0" stroke-dasharray="none" opacity="1.0" fill="none"/><g id="ProcessOnG1190" transform="matrix(1.0,0.0,0.0,1.0,0.0,6.0)"><text id="ProcessOnText1191" fill="#000000" font-size="16" x="77.5" y="16.4" font-family="微软雅黑" font-weight="normal" font-style="normal" text-decoration="none" family="微软雅黑" text-anchor="middle" size="16">lua_State中记录所有</text><text id="ProcessOnText1192" fill="#000000" font-size="16" x="77.5" y="36.4" font-family="微软雅黑" font-weight="normal" font-style="normal" text-decoration="none" family="微软雅黑" text-anchor="middle" size="16">Upvalue构成的链表</text></g></g><g id="ProcessOnG1193" transform="matrix(1.0,0.0,0.0,1.0,425.0,476.0)" opacity="1.0"><path id="ProcessOnPath1194" d="M0.0 0.0L124.0 0.0L124.0 59.0L0.0 59.0Z" stroke="none" stroke-width="0.0" stroke-dasharray="none" opacity="1.0" fill="none"/><g id="ProcessOnG1195" transform="matrix(1.0,0.0,0.0,1.0,0.0,9.5)"><text id="ProcessOnText1196" fill="#000000" font-size="16" x="61.0" y="16.4" font-family="微软雅黑" font-weight="normal" font-style="normal" text-decoration="none" family="微软雅黑" text-anchor="middle" size="16">函数返回前，Up</text><text id="ProcessOnText1197" fill="#000000" font-size="16" x="61.0" y="36.4" font-family="微软雅黑" font-weight="normal" font-style="normal" text-decoration="none" family="微软雅黑" text-anchor="middle" size="16">Val是open的</text></g></g><g id="ProcessOnG1198" transform="matrix(1.0,0.0,0.0,1.0,775.0,472.5)" opacity="1.0"><path id="ProcessOnPath1199" d="M0.0 0.0L124.0 0.0L124.0 59.0L0.0 59.0Z" stroke="none" stroke-width="0.0" stroke-dasharray="none" opacity="1.0" fill="none"/><g id="ProcessOnG1200" transform="matrix(1.0,0.0,0.0,1.0,0.0,9.5)"><text id="ProcessOnText1201" fill="#000000" font-size="16" x="61.0" y="16.4" font-family="微软雅黑" font-weight="normal" font-style="normal" text-decoration="none" family="微软雅黑" text-anchor="middle" size="16">函数返回后，Up</text><text id="ProcessOnText1202" fill="#000000" font-size="16" x="61.0" y="36.4" font-family="微软雅黑" font-weight="normal" font-style="normal" text-decoration="none" family="微软雅黑" text-anchor="middle" size="16">Val是close的</text></g></g></g></g></svg>