<svg xmlns="http://www.w3.org/2000/svg" xmlns:xlink="http://www.w3.org/1999/xlink" id="processonSvg1000" viewBox="61.5 -285.37500000000006 1012.0 913.875" width="1012.0" height="913.875"><defs id="ProcessOnDefs1001"/><g id="ProcessOnG1002"><path id="ProcessOnPath1003" d="M61.5 -285.37500000000006H1073.5V628.5H61.5V-285.375Z" fill="none"/><g id="ProcessOnG1004"><g id="ProcessOnG1005" transform="matrix(1.0,0.0,0.0,1.0,81.5,169.5)" opacity="1.0"><path id="ProcessOnPath1006" d="M0.0 0.0L80.0 0.0L80.0 28.0L0.0 28.0Z" stroke="#323232" stroke-width="2.0" stroke-dasharray="none" opacity="1.0" fill="#ffcccc"/><g id="ProcessOnG1007" transform="matrix(1.0,0.0,0.0,1.0,10.0,1.5)"><text id="ProcessOnText1008" fill="#000000" font-size="20" x="29.0" y="20.5" font-family="微软雅黑" font-weight="normal" font-style="normal" text-decoration="none" family="微软雅黑" text-anchor="middle" size="20">pause</text></g></g><g id="ProcessOnG1009" transform="matrix(1.0,0.0,0.0,1.0,161.5,169.5)" opacity="1.0"><path id="ProcessOnPath1010" d="M0.0 0.0L120.0 0.0L120.0 28.0L0.0 28.0Z" stroke="#323232" stroke-width="2.0" stroke-dasharray="none" opacity="1.0" fill="#ffe6cc"/><g id="ProcessOnG1011" transform="matrix(1.0,0.0,0.0,1.0,10.0,-11.0)"><text id="ProcessOnText1012" fill="#000000" font-size="20" x="49.0" y="20.5" font-family="微软雅黑" font-weight="normal" font-style="normal" text-decoration="none" family="微软雅黑" text-anchor="middle" size="20">propagat</text><text id="ProcessOnText1013" fill="#000000" font-size="20" x="49.0" y="45.5" font-family="微软雅黑" font-weight="normal" font-style="normal" text-decoration="none" family="微软雅黑" text-anchor="middle" size="20">e</text></g></g><g id="ProcessOnG1014" transform="matrix(1.0,0.0,0.0,1.0,367.5,169.5)" opacity="1.0"><path id="ProcessOnPath1015" d="M0.0 0.0L104.0 0.0L104.0 28.0L0.0 28.0Z" stroke="#323232" stroke-width="2.0" stroke-dasharray="none" opacity="1.0" fill="#e6ffcc"/><g id="ProcessOnG1016" transform="matrix(1.0,0.0,0.0,1.0,10.0,1.5)"><text id="ProcessOnText1017" fill="#000000" font-size="20" x="41.0" y="20.5" font-family="微软雅黑" font-weight="normal" font-style="normal" text-decoration="none" family="微软雅黑" text-anchor="middle" size="20">swpallgc</text></g></g><g id="ProcessOnG1018" transform="matrix(1.0,0.0,0.0,1.0,471.5,169.5)" opacity="1.0"><path id="ProcessOnPath1019" d="M0.0 0.0L104.0 0.0L104.0 28.0L0.0 28.0Z" stroke="#323232" stroke-width="2.0" stroke-dasharray="none" opacity="1.0" fill="#ccffcc"/><g id="ProcessOnG1020" transform="matrix(1.0,0.0,0.0,1.0,10.0,1.5)"><text id="ProcessOnText1021" fill="#000000" font-size="20" x="41.0" y="20.5" font-family="微软雅黑" font-weight="normal" font-style="normal" text-decoration="none" family="微软雅黑" text-anchor="middle" size="20">swpallgc</text></g></g><g id="ProcessOnG1022" transform="matrix(1.0,0.0,0.0,1.0,81.5,141.5)" opacity="1.0"><path id="ProcessOnPath1023" d="M0.0 0.0L244.0 0.0L244.0 28.0L0.0 28.0Z" stroke="#323232" stroke-width="2.0" stroke-dasharray="none" opacity="1.0" fill="#ccff99"/><g id="ProcessOnG1024" transform="matrix(1.0,0.0,0.0,1.0,10.0,5.875)"><text id="ProcessOnText1025" fill="#000000" font-size="13" x="111.0" y="13.325" font-family="微软雅黑" font-weight="normal" font-style="normal" text-decoration="none" family="微软雅黑" text-anchor="middle" size="13">白色1</text></g></g><g id="ProcessOnG1026" transform="matrix(1.0,0.0,0.0,1.0,575.5,169.5)" opacity="1.0"><path id="ProcessOnPath1027" d="M0.0 0.0L114.0 0.0L114.0 28.0L0.0 28.0Z" stroke="#323232" stroke-width="2.0" stroke-dasharray="none" opacity="1.0" fill="#ccffe6"/><g id="ProcessOnG1028" transform="matrix(1.0,0.0,0.0,1.0,10.0,-11.0)"><text id="ProcessOnText1029" fill="#000000" font-size="20" x="46.0" y="20.5" font-family="微软雅黑" font-weight="normal" font-style="normal" text-decoration="none" family="微软雅黑" text-anchor="middle" size="20">swpfinob</text><text id="ProcessOnText1030" fill="#000000" font-size="20" x="46.0" y="45.5" font-family="微软雅黑" font-weight="normal" font-style="normal" text-decoration="none" family="微软雅黑" text-anchor="middle" size="20">j</text></g></g><g id="ProcessOnG1031" transform="matrix(1.0,0.0,0.0,1.0,689.5,169.5)" opacity="1.0"><path id="ProcessOnPath1032" d="M0.0 0.0L132.0 0.0L132.0 28.0L0.0 28.0Z" stroke="#323232" stroke-width="2.0" stroke-dasharray="none" opacity="1.0" fill="#ccffff"/><g id="ProcessOnG1033" transform="matrix(1.0,0.0,0.0,1.0,10.0,-11.0)"><text id="ProcessOnText1034" fill="#000000" font-size="20" x="55.0" y="20.5" font-family="微软雅黑" font-weight="normal" font-style="normal" text-decoration="none" family="微软雅黑" text-anchor="middle" size="20">swptobefn</text><text id="ProcessOnText1035" fill="#000000" font-size="20" x="55.0" y="45.5" font-family="微软雅黑" font-weight="normal" font-style="normal" text-decoration="none" family="微软雅黑" text-anchor="middle" size="20">z</text></g></g><g id="ProcessOnG1036" transform="matrix(1.0,0.0,0.0,1.0,821.5,169.5)" opacity="1.0"><path id="ProcessOnPath1037" d="M0.0 0.0L114.0 0.0L114.0 28.0L0.0 28.0Z" stroke="#323232" stroke-width="2.0" stroke-dasharray="none" opacity="1.0" fill="#cce5ff"/><g id="ProcessOnG1038" transform="matrix(1.0,0.0,0.0,1.0,10.0,1.5)"><text id="ProcessOnText1039" fill="#000000" font-size="20" x="46.0" y="20.5" font-family="微软雅黑" font-weight="normal" font-style="normal" text-decoration="none" family="微软雅黑" text-anchor="middle" size="20">swpend</text></g></g><g id="ProcessOnG1040" transform="matrix(1.0,0.0,0.0,1.0,321.5,141.5)" opacity="1.0"><path id="ProcessOnPath1041" d="M0.0 0.0L728.0 0.0L728.0 28.0L0.0 28.0Z" stroke="#323232" stroke-width="2.0" stroke-dasharray="none" opacity="1.0" fill="#cc99ff"/><g id="ProcessOnG1042" transform="matrix(1.0,0.0,0.0,1.0,10.0,5.875)"><text id="ProcessOnText1043" fill="#000000" font-size="13" x="353.0" y="13.325" font-family="微软雅黑" font-weight="normal" font-style="normal" text-decoration="none" family="微软雅黑" text-anchor="middle" size="13">白色2</text></g></g><g id="ProcessOnG1044" transform="matrix(1.0,0.0,0.0,1.0,935.5,169.5)" opacity="1.0"><path id="ProcessOnPath1045" d="M0.0 0.0L114.0 0.0L114.0 28.0L0.0 28.0Z" stroke="#323232" stroke-width="2.0" stroke-dasharray="none" opacity="1.0" fill="#ccccff"/><g id="ProcessOnG1046" transform="matrix(1.0,0.0,0.0,1.0,10.0,1.5)"><text id="ProcessOnText1047" fill="#000000" font-size="20" x="46.0" y="20.5" font-family="微软雅黑" font-weight="normal" font-style="normal" text-decoration="none" family="微软雅黑" text-anchor="middle" size="20">callfin</text></g></g><g id="ProcessOnG1048" transform="matrix(1.0,0.0,0.0,1.0,81.5,349.5)" opacity="1.0"><path id="ProcessOnPath1049" d="M0.0 0.0L80.0 0.0L80.0 28.0L0.0 28.0Z" stroke="#323232" stroke-width="2.0" stroke-dasharray="none" opacity="1.0" fill="#ffcccc"/><g id="ProcessOnG1050" transform="matrix(1.0,0.0,0.0,1.0,10.0,1.5)"><text id="ProcessOnText1051" fill="#000000" font-size="20" x="29.0" y="20.5" font-family="微软雅黑" font-weight="normal" font-style="normal" text-decoration="none" family="微软雅黑" text-anchor="middle" size="20">pause</text></g></g><g id="ProcessOnG1052" transform="matrix(1.0,0.0,0.0,1.0,161.5,349.5)" opacity="1.0"><path id="ProcessOnPath1053" d="M0.0 0.0L40.0 0.0L40.0 28.0L0.0 28.0Z" stroke="#323232" stroke-width="2.0" stroke-dasharray="none" opacity="1.0" fill="#ffffff"/><g id="ProcessOnG1054" transform="matrix(1.0,0.0,0.0,1.0,10.0,1.5)"><text id="ProcessOnText1055" fill="#000000" font-size="20" x="9.0" y="20.5" font-family="微软雅黑" font-weight="normal" font-style="normal" text-decoration="none" family="微软雅黑" text-anchor="middle" size="20">...</text></g></g><g id="ProcessOnG1056" transform="matrix(1.0,0.0,0.0,1.0,201.5,349.5)" opacity="1.0"><path id="ProcessOnPath1057" d="M0.0 0.0L86.0 0.0L86.0 28.0L0.0 28.0Z" stroke="#323232" stroke-width="2.0" stroke-dasharray="none" opacity="1.0" fill="#ffffcc"/><g id="ProcessOnG1058" transform="matrix(1.0,0.0,0.0,1.0,10.0,-11.0)"><text id="ProcessOnText1059" fill="#000000" font-size="20" x="32.0" y="20.5" font-family="微软雅黑" font-weight="normal" font-style="normal" text-decoration="none" family="微软雅黑" text-anchor="middle" size="20">atomi</text><text id="ProcessOnText1060" fill="#000000" font-size="20" x="32.0" y="45.5" font-family="微软雅黑" font-weight="normal" font-style="normal" text-decoration="none" family="微软雅黑" text-anchor="middle" size="20">c</text></g></g><g id="ProcessOnG1061" transform="matrix(1.0,0.0,0.0,1.0,81.5,321.5)" opacity="1.0"><path id="ProcessOnPath1062" d="M0.0 0.0L159.0 0.0L159.0 28.0L0.0 28.0Z" stroke="#323232" stroke-width="2.0" stroke-dasharray="none" opacity="1.0" fill="#ccff99"/><g id="ProcessOnG1063" transform="matrix(1.0,0.0,0.0,1.0,10.0,5.875)"><text id="ProcessOnText1064" fill="#000000" font-size="13" x="68.5" y="13.325" font-family="微软雅黑" font-weight="normal" font-style="normal" text-decoration="none" family="微软雅黑" text-anchor="middle" size="13">白色1</text></g></g><g id="ProcessOnG1065" transform="matrix(1.0,0.0,0.0,1.0,240.5,321.5)" opacity="1.0"><path id="ProcessOnPath1066" d="M0.0 0.0L165.0 0.0L165.0 28.0L0.0 28.0Z" stroke="#323232" stroke-width="2.0" stroke-dasharray="none" opacity="1.0" fill="#cc99ff"/><g id="ProcessOnG1067" transform="matrix(1.0,0.0,0.0,1.0,10.0,5.875)"><text id="ProcessOnText1068" fill="#000000" font-size="13" x="71.5" y="13.325" font-family="微软雅黑" font-weight="normal" font-style="normal" text-decoration="none" family="微软雅黑" text-anchor="middle" size="13">白色2</text></g></g><g id="ProcessOnG1069" transform="matrix(1.0,0.0,0.0,1.0,327.5,349.5)" opacity="1.0"><path id="ProcessOnPath1070" d="M0.0 0.0L78.0 0.0L78.0 28.0L0.0 28.0Z" stroke="#323232" stroke-width="2.0" stroke-dasharray="none" opacity="1.0" fill="#ccccff"/><g id="ProcessOnG1071" transform="matrix(1.0,0.0,0.0,1.0,10.0,1.5)"><text id="ProcessOnText1072" fill="#000000" font-size="20" x="28.0" y="20.5" font-family="微软雅黑" font-weight="normal" font-style="normal" text-decoration="none" family="微软雅黑" text-anchor="middle" size="20">callfin</text></g></g><g id="ProcessOnG1073" transform="matrix(1.0,0.0,0.0,1.0,287.5,349.5)" opacity="1.0"><path id="ProcessOnPath1074" d="M0.0 0.0L40.0 0.0L40.0 28.0L0.0 28.0Z" stroke="#323232" stroke-width="2.0" stroke-dasharray="none" opacity="1.0" fill="#ffffff"/><g id="ProcessOnG1075" transform="matrix(1.0,0.0,0.0,1.0,10.0,1.5)"><text id="ProcessOnText1076" fill="#000000" font-size="20" x="9.0" y="20.5" font-family="微软雅黑" font-weight="normal" font-style="normal" text-decoration="none" family="微软雅黑" text-anchor="middle" size="20">...</text></g></g><g id="ProcessOnG1077" transform="matrix(1.0,0.0,0.0,1.0,405.5,349.5)" opacity="1.0"><path id="ProcessOnPath1078" d="M0.0 0.0L80.0 0.0L80.0 28.0L0.0 28.0Z" stroke="#323232" stroke-width="2.0" stroke-dasharray="none" opacity="1.0" fill="#ffcccc"/><g id="ProcessOnG1079" transform="matrix(1.0,0.0,0.0,1.0,10.0,1.5)"><text id="ProcessOnText1080" fill="#000000" font-size="20" x="29.0" y="20.5" font-family="微软雅黑" font-weight="normal" font-style="normal" text-decoration="none" family="微软雅黑" text-anchor="middle" size="20">pause</text></g></g><g id="ProcessOnG1081" transform="matrix(1.0,0.0,0.0,1.0,485.5,349.5)" opacity="1.0"><path id="ProcessOnPath1082" d="M0.0 0.0L40.0 0.0L40.0 28.0L0.0 28.0Z" stroke="#323232" stroke-width="2.0" stroke-dasharray="none" opacity="1.0" fill="#ffffff"/><g id="ProcessOnG1083" transform="matrix(1.0,0.0,0.0,1.0,10.0,1.5)"><text id="ProcessOnText1084" fill="#000000" font-size="20" x="9.0" y="20.5" font-family="微软雅黑" font-weight="normal" font-style="normal" text-decoration="none" family="微软雅黑" text-anchor="middle" size="20">...</text></g></g><g id="ProcessOnG1085" transform="matrix(1.0,0.0,0.0,1.0,525.5,349.5)" opacity="1.0"><path id="ProcessOnPath1086" d="M0.0 0.0L86.0 0.0L86.0 28.0L0.0 28.0Z" stroke="#323232" stroke-width="2.0" stroke-dasharray="none" opacity="1.0" fill="#ffffcc"/><g id="ProcessOnG1087" transform="matrix(1.0,0.0,0.0,1.0,10.0,-11.0)"><text id="ProcessOnText1088" fill="#000000" font-size="20" x="32.0" y="20.5" font-family="微软雅黑" font-weight="normal" font-style="normal" text-decoration="none" family="微软雅黑" text-anchor="middle" size="20">atomi</text><text id="ProcessOnText1089" fill="#000000" font-size="20" x="32.0" y="45.5" font-family="微软雅黑" font-weight="normal" font-style="normal" text-decoration="none" family="微软雅黑" text-anchor="middle" size="20">c</text></g></g><g id="ProcessOnG1090" transform="matrix(1.0,0.0,0.0,1.0,405.5,321.5)" opacity="1.0"><path id="ProcessOnPath1091" d="M0.0 0.0L159.0 0.0L159.0 28.0L0.0 28.0Z" stroke="#323232" stroke-width="2.0" stroke-dasharray="none" opacity="1.0" fill="#cc99ff"/><g id="ProcessOnG1092" transform="matrix(1.0,0.0,0.0,1.0,10.0,5.875)"><text id="ProcessOnText1093" fill="#000000" font-size="13" x="68.5" y="13.325" font-family="微软雅黑" font-weight="normal" font-style="normal" text-decoration="none" family="微软雅黑" text-anchor="middle" size="13">白色2</text></g></g><g id="ProcessOnG1094" transform="matrix(1.0,0.0,0.0,1.0,564.5,321.5)" opacity="1.0"><path id="ProcessOnPath1095" d="M0.0 0.0L165.0 0.0L165.0 28.0L0.0 28.0Z" stroke="#323232" stroke-width="2.0" stroke-dasharray="none" opacity="1.0" fill="#ccff99"/><g id="ProcessOnG1096" transform="matrix(1.0,0.0,0.0,1.0,10.0,5.875)"><text id="ProcessOnText1097" fill="#000000" font-size="13" x="71.5" y="13.325" font-family="微软雅黑" font-weight="normal" font-style="normal" text-decoration="none" family="微软雅黑" text-anchor="middle" size="13">白色1</text></g></g><g id="ProcessOnG1098" transform="matrix(1.0,0.0,0.0,1.0,611.5,349.5)" opacity="1.0"><path id="ProcessOnPath1099" d="M0.0 0.0L40.0 0.0L40.0 28.0L0.0 28.0Z" stroke="#323232" stroke-width="2.0" stroke-dasharray="none" opacity="1.0" fill="#ffffff"/><g id="ProcessOnG1100" transform="matrix(1.0,0.0,0.0,1.0,10.0,1.5)"><text id="ProcessOnText1101" fill="#000000" font-size="20" x="9.0" y="20.5" font-family="微软雅黑" font-weight="normal" font-style="normal" text-decoration="none" family="微软雅黑" text-anchor="middle" size="20">...</text></g></g><g id="ProcessOnG1102" transform="matrix(1.0,0.0,0.0,1.0,729.5,349.5)" opacity="1.0"><path id="ProcessOnPath1103" d="M0.0 0.0L80.0 0.0L80.0 28.0L0.0 28.0Z" stroke="#323232" stroke-width="2.0" stroke-dasharray="none" opacity="1.0" fill="#ffcccc"/><g id="ProcessOnG1104" transform="matrix(1.0,0.0,0.0,1.0,10.0,1.5)"><text id="ProcessOnText1105" fill="#000000" font-size="20" x="29.0" y="20.5" font-family="微软雅黑" font-weight="normal" font-style="normal" text-decoration="none" family="微软雅黑" text-anchor="middle" size="20">pause</text></g></g><g id="ProcessOnG1106" transform="matrix(1.0,0.0,0.0,1.0,809.5,349.5)" opacity="1.0"><path id="ProcessOnPath1107" d="M0.0 0.0L40.0 0.0L40.0 28.0L0.0 28.0Z" stroke="#323232" stroke-width="2.0" stroke-dasharray="none" opacity="1.0" fill="#ffffff"/><g id="ProcessOnG1108" transform="matrix(1.0,0.0,0.0,1.0,10.0,1.5)"><text id="ProcessOnText1109" fill="#000000" font-size="20" x="9.0" y="20.5" font-family="微软雅黑" font-weight="normal" font-style="normal" text-decoration="none" family="微软雅黑" text-anchor="middle" size="20">...</text></g></g><g id="ProcessOnG1110" transform="matrix(1.0,0.0,0.0,1.0,849.5,349.5)" opacity="1.0"><path id="ProcessOnPath1111" d="M0.0 0.0L86.0 0.0L86.0 28.0L0.0 28.0Z" stroke="#323232" stroke-width="2.0" stroke-dasharray="none" opacity="1.0" fill="#ffffcc"/><g id="ProcessOnG1112" transform="matrix(1.0,0.0,0.0,1.0,10.0,-11.0)"><text id="ProcessOnText1113" fill="#000000" font-size="20" x="32.0" y="20.5" font-family="微软雅黑" font-weight="normal" font-style="normal" text-decoration="none" family="微软雅黑" text-anchor="middle" size="20">atomi</text><text id="ProcessOnText1114" fill="#000000" font-size="20" x="32.0" y="45.5" font-family="微软雅黑" font-weight="normal" font-style="normal" text-decoration="none" family="微软雅黑" text-anchor="middle" size="20">c</text></g></g><g id="ProcessOnG1115" transform="matrix(1.0,0.0,0.0,1.0,729.5,321.5)" opacity="1.0"><path id="ProcessOnPath1116" d="M0.0 0.0L159.0 0.0L159.0 28.0L0.0 28.0Z" stroke="#323232" stroke-width="2.0" stroke-dasharray="none" opacity="1.0" fill="#ccff99"/><g id="ProcessOnG1117" transform="matrix(1.0,0.0,0.0,1.0,10.0,5.875)"><text id="ProcessOnText1118" fill="#000000" font-size="13" x="68.5" y="13.325" font-family="微软雅黑" font-weight="normal" font-style="normal" text-decoration="none" family="微软雅黑" text-anchor="middle" size="13">白色1</text></g></g><g id="ProcessOnG1119" transform="matrix(1.0,0.0,0.0,1.0,888.5,321.5)" opacity="1.0"><path id="ProcessOnPath1120" d="M0.0 0.0L165.0 0.0L165.0 28.0L0.0 28.0Z" stroke="#323232" stroke-width="2.0" stroke-dasharray="none" opacity="1.0" fill="#cc99ff"/><g id="ProcessOnG1121" transform="matrix(1.0,0.0,0.0,1.0,10.0,5.875)"><text id="ProcessOnText1122" fill="#000000" font-size="13" x="71.5" y="13.325" font-family="微软雅黑" font-weight="normal" font-style="normal" text-decoration="none" family="微软雅黑" text-anchor="middle" size="13">白色2</text></g></g><g id="ProcessOnG1123" transform="matrix(1.0,0.0,0.0,1.0,935.5,349.5)" opacity="1.0"><path id="ProcessOnPath1124" d="M0.0 0.0L40.0 0.0L40.0 28.0L0.0 28.0Z" stroke="#323232" stroke-width="2.0" stroke-dasharray="none" opacity="1.0" fill="#ffffff"/><g id="ProcessOnG1125" transform="matrix(1.0,0.0,0.0,1.0,10.0,1.5)"><text id="ProcessOnText1126" fill="#000000" font-size="20" x="9.0" y="20.5" font-family="微软雅黑" font-weight="normal" font-style="normal" text-decoration="none" family="微软雅黑" text-anchor="middle" size="20">...</text></g></g><g id="ProcessOnG1127" transform="matrix(1.0,0.0,0.0,1.0,651.5,349.5)" opacity="1.0"><path id="ProcessOnPath1128" d="M0.0 0.0L78.0 0.0L78.0 28.0L0.0 28.0Z" stroke="#323232" stroke-width="2.0" stroke-dasharray="none" opacity="1.0" fill="#ccccff"/><g id="ProcessOnG1129" transform="matrix(1.0,0.0,0.0,1.0,10.0,1.5)"><text id="ProcessOnText1130" fill="#000000" font-size="20" x="28.0" y="20.5" font-family="微软雅黑" font-weight="normal" font-style="normal" text-decoration="none" family="微软雅黑" text-anchor="middle" size="20">callfin</text></g></g><g id="ProcessOnG1131" transform="matrix(1.0,0.0,0.0,1.0,975.5,349.5)" opacity="1.0"><path id="ProcessOnPath1132" d="M0.0 0.0L78.0 0.0L78.0 28.0L0.0 28.0Z" stroke="#323232" stroke-width="2.0" stroke-dasharray="none" opacity="1.0" fill="#ccccff"/><g id="ProcessOnG1133" transform="matrix(1.0,0.0,0.0,1.0,10.0,1.5)"><text id="ProcessOnText1134" fill="#000000" font-size="20" x="28.0" y="20.5" font-family="微软雅黑" font-weight="normal" font-style="normal" text-decoration="none" family="微软雅黑" text-anchor="middle" size="20">callfin</text></g></g><g id="ProcessOnG1135" transform="matrix(1.0,0.0,0.0,1.0,281.5,169.5)" opacity="1.0"><path id="ProcessOnPath1136" d="M0.0 0.0L86.0 0.0L86.0 28.0L0.0 28.0Z" stroke="#323232" stroke-width="2.0" stroke-dasharray="none" opacity="1.0" fill="#ffffcc"/><g id="ProcessOnG1137" transform="matrix(1.0,0.0,0.0,1.0,10.0,-11.0)"><text id="ProcessOnText1138" fill="#000000" font-size="20" x="32.0" y="20.5" font-family="微软雅黑" font-weight="normal" font-style="normal" text-decoration="none" family="微软雅黑" text-anchor="middle" size="20">atomi</text><text id="ProcessOnText1139" fill="#000000" font-size="20" x="32.0" y="45.5" font-family="微软雅黑" font-weight="normal" font-style="normal" text-decoration="none" family="微软雅黑" text-anchor="middle" size="20">c</text></g></g><g id="ProcessOnG1140" transform="matrix(6.123233995736766E-17,1.0,-1.0,6.123233995736766E-17,406.25,380.0)" opacity="1.0"><path id="ProcessOnPath1141" d="M0.0 323.5Q9.0 323.5 9.0 314.5L9.0 170.75Q9.0 161.75 22.0 161.75Q9.0 161.75 9.0 152.75L9.0 9.0Q9.0 0.0 0.0 0.0" stroke="#323232" stroke-width="2.0" stroke-dasharray="none" opacity="1.0" fill="none"/><path id="ProcessOnPath1142" d="M0.0 0.0L133.0 0.0L133.0 323.5L0.0 323.5Z" stroke="none" stroke-width="0.0" stroke-dasharray="none" opacity="1.0" fill="none"/></g><g id="ProcessOnG1143" transform="matrix(6.123233995736766E-17,1.0,-1.0,6.123233995736766E-17,730.25,380.0)" opacity="1.0"><path id="ProcessOnPath1144" d="M0.0 323.5Q9.0 323.5 9.0 314.5L9.0 170.75Q9.0 161.75 22.0 161.75Q9.0 161.75 9.0 152.75L9.0 9.0Q9.0 0.0 0.0 0.0" stroke="#323232" stroke-width="2.0" stroke-dasharray="none" opacity="1.0" fill="none"/><path id="ProcessOnPath1145" d="M0.0 0.0L133.0 0.0L133.0 323.5L0.0 323.5Z" stroke="none" stroke-width="0.0" stroke-dasharray="none" opacity="1.0" fill="none"/></g><g id="ProcessOnG1146" transform="matrix(6.123233995736766E-17,1.0,-1.0,6.123233995736766E-17,1054.25,380.25)" opacity="1.0"><path id="ProcessOnPath1147" d="M0.0 323.5Q9.0 323.5 9.0 314.5L9.0 170.75Q9.0 161.75 22.0 161.75Q9.0 161.75 9.0 152.75L9.0 9.0Q9.0 0.0 0.0 0.0" stroke="#323232" stroke-width="2.0" stroke-dasharray="none" opacity="1.0" fill="none"/><path id="ProcessOnPath1148" d="M0.0 0.0L133.0 0.0L133.0 323.5L0.0 323.5Z" stroke="none" stroke-width="0.0" stroke-dasharray="none" opacity="1.0" fill="none"/></g><g id="ProcessOnG1149" transform="matrix(1.0,0.0,0.0,1.0,178.0,408.0)" opacity="1.0"><path id="ProcessOnPath1150" d="M0.0 0.0L133.0 0.0L133.0 42.0L0.0 42.0Z" stroke="none" stroke-width="0.0" stroke-dasharray="none" opacity="1.0" fill="none"/><g id="ProcessOnG1151" transform="matrix(1.0,0.0,0.0,1.0,0.0,1.0)"><text id="ProcessOnText1152" fill="#000000" font-size="16" x="65.5" y="16.4" font-family="微软雅黑" font-weight="normal" font-style="normal" text-decoration="none" family="微软雅黑" text-anchor="middle" size="16">A：此周期扫描和</text><text id="ProcessOnText1153" fill="#000000" font-size="16" x="65.5" y="36.4" font-family="微软雅黑" font-weight="normal" font-style="normal" text-decoration="none" family="微软雅黑" text-anchor="middle" size="16">回收白色1的对象</text></g></g><g id="ProcessOnG1154" transform="matrix(1.0,0.0,0.0,1.0,502.0,408.0)" opacity="1.0"><path id="ProcessOnPath1155" d="M0.0 0.0L133.0 0.0L133.0 42.0L0.0 42.0Z" stroke="none" stroke-width="0.0" stroke-dasharray="none" opacity="1.0" fill="none"/><g id="ProcessOnG1156" transform="matrix(1.0,0.0,0.0,1.0,0.0,1.0)"><text id="ProcessOnText1157" fill="#000000" font-size="16" x="65.5" y="16.4" font-family="微软雅黑" font-weight="normal" font-style="normal" text-decoration="none" family="微软雅黑" text-anchor="middle" size="16">B：此周期扫描和</text><text id="ProcessOnText1158" fill="#000000" font-size="16" x="65.5" y="36.4" font-family="微软雅黑" font-weight="normal" font-style="normal" text-decoration="none" family="微软雅黑" text-anchor="middle" size="16">回收白色2的对象</text></g></g><g id="ProcessOnG1159" transform="matrix(1.0,0.0,0.0,1.0,826.0,408.0)" opacity="1.0"><path id="ProcessOnPath1160" d="M0.0 0.0L133.0 0.0L133.0 42.0L0.0 42.0Z" stroke="none" stroke-width="0.0" stroke-dasharray="none" opacity="1.0" fill="none"/><g id="ProcessOnG1161" transform="matrix(1.0,0.0,0.0,1.0,0.0,1.0)"><text id="ProcessOnText1162" fill="#000000" font-size="16" x="65.5" y="16.4" font-family="微软雅黑" font-weight="normal" font-style="normal" text-decoration="none" family="微软雅黑" text-anchor="middle" size="16">C：此周期扫描和</text><text id="ProcessOnText1163" fill="#000000" font-size="16" x="65.5" y="36.4" font-family="微软雅黑" font-weight="normal" font-style="normal" text-decoration="none" family="微软雅黑" text-anchor="middle" size="16">回收白色1的对象</text></g></g><g id="ProcessOnG1164" transform="matrix(6.123233995736766E-17,1.0,-1.0,6.123233995736766E-17,239.0,213.0)" opacity="1.0"><path id="ProcessOnPath1165" d="M104.49999999999997 0.0Q95.49999999999997 0.0 95.49999999999997 9.0L95.49999999999997 69.74999999999999Q95.49999999999997 78.74999999999999 82.49999999999997 78.74999999999999Q95.49999999999997 78.74999999999999 95.49999999999997 87.74999999999999L95.49999999999997 148.49999999999997Q95.49999999999997 157.49999999999997 104.49999999999997 157.49999999999997" stroke="#323232" stroke-width="2.0" stroke-dasharray="none" opacity="1.0" fill="none"/><path id="ProcessOnPath1166" d="M0.0 0.0L104.49999999999997 0.0L104.49999999999997 157.49999999999997L0.0 157.49999999999997Z" stroke="none" stroke-width="0.0" stroke-dasharray="none" opacity="1.0" fill="none"/></g><g id="ProcessOnG1167" transform="matrix(6.123233995736766E-17,1.0,-1.0,6.123233995736766E-17,563.0,223.99999999999994)" opacity="1.0"><path id="ProcessOnPath1168" d="M93.5 0.0Q84.5 0.0 84.5 9.0L84.5 152.25Q84.5 161.25 71.5 161.25Q84.5 161.25 84.5 170.25L84.5 313.5Q84.5 322.5 93.5 322.5" stroke="#323232" stroke-width="2.0" stroke-dasharray="none" opacity="1.0" fill="none"/><path id="ProcessOnPath1169" d="M0.0 0.0L93.5 0.0L93.5 322.5L0.0 322.5Z" stroke="none" stroke-width="0.0" stroke-dasharray="none" opacity="1.0" fill="none"/></g><g id="ProcessOnG1170" transform="matrix(6.123233995736766E-17,1.0,-1.0,6.123233995736766E-17,887.0,223.99999999999994)" opacity="1.0"><path id="ProcessOnPath1171" d="M93.5 0.0Q84.5 0.0 84.5 9.0L84.5 152.25Q84.5 161.25 71.5 161.25Q84.5 161.25 84.5 170.25L84.5 313.5Q84.5 322.5 93.5 322.5" stroke="#323232" stroke-width="2.0" stroke-dasharray="none" opacity="1.0" fill="none"/><path id="ProcessOnPath1172" d="M0.0 0.0L93.5 0.0L93.5 322.5L0.0 322.5Z" stroke="none" stroke-width="0.0" stroke-dasharray="none" opacity="1.0" fill="none"/></g><g id="ProcessOnG1173" transform="matrix(1.0,0.0,0.0,1.0,126.5,265.0)" opacity="1.0"><path id="ProcessOnPath1174" d="M0.0 0.0L67.5 0.0L67.5 36.0L0.0 36.0Z" stroke="none" stroke-width="0.0" stroke-dasharray="none" opacity="1.0" fill="none"/><g id="ProcessOnG1175" transform="matrix(1.0,0.0,0.0,1.0,0.0,8.0)"><text id="ProcessOnText1176" fill="#000000" font-size="16" x="32.75" y="16.4" font-family="微软雅黑" font-weight="normal" font-style="normal" text-decoration="none" family="微软雅黑" text-anchor="middle" size="16">对应A</text></g></g><g id="ProcessOnG1177" transform="matrix(1.0,0.0,0.0,1.0,368.00000000000006,265.0)" opacity="1.0"><path id="ProcessOnPath1178" d="M0.0 0.0L67.5 0.0L67.5 36.0L0.0 36.0Z" stroke="none" stroke-width="0.0" stroke-dasharray="none" opacity="1.0" fill="none"/><g id="ProcessOnG1179" transform="matrix(1.0,0.0,0.0,1.0,0.0,8.0)"><text id="ProcessOnText1180" fill="#000000" font-size="16" x="32.75" y="16.4" font-family="微软雅黑" font-weight="normal" font-style="normal" text-decoration="none" family="微软雅黑" text-anchor="middle" size="16">对应B</text></g></g><g id="ProcessOnG1181" transform="matrix(1.0,0.0,0.0,1.0,692.0,265.0)" opacity="1.0"><path id="ProcessOnPath1182" d="M0.0 0.0L67.5 0.0L67.5 36.0L0.0 36.0Z" stroke="none" stroke-width="0.0" stroke-dasharray="none" opacity="1.0" fill="none"/><g id="ProcessOnG1183" transform="matrix(1.0,0.0,0.0,1.0,0.0,8.0)"><text id="ProcessOnText1184" fill="#000000" font-size="16" x="32.75" y="16.4" font-family="微软雅黑" font-weight="normal" font-style="normal" text-decoration="none" family="微软雅黑" text-anchor="middle" size="16">对应C</text></g></g><g id="ProcessOnG1185" transform="matrix(1.0,0.0,0.0,1.0,226.5,480.0)" opacity="1.0"><path id="ProcessOnPath1186" d="M0.0 0.0L669.0 0.0L669.0 52.0L0.0 52.0Z" stroke="none" stroke-width="0.0" stroke-dasharray="none" opacity="1.0" fill="none"/><g id="ProcessOnG1187" transform="matrix(1.0,0.0,0.0,1.0,0.0,6.0)"><text id="ProcessOnText1188" fill="#000000" font-size="16" x="333.5" y="16.4" font-family="微软雅黑" font-weight="bold" font-style="normal" text-decoration="none" family="微软雅黑" text-anchor="middle" size="16">采用LUA_GCCOLLECT调用lua_gc或者collectgarbage("collect”)，Lua会先跑完当前GC周期</text><text id="ProcessOnText1189" fill="#000000" font-size="16" x="333.5" y="36.4" font-family="微软雅黑" font-weight="bold" font-style="normal" text-decoration="none" family="微软雅黑" text-anchor="middle" size="16">，之后再完整的跑完一个新的周期，因此一次手动完整GC调用会回收两种白色标记的对象</text></g></g><g id="ProcessOnG1190" transform="matrix(6.123233995736766E-17,1.0,-1.0,6.123233995736766E-17,1047.0,55.99999999999989)" opacity="1.0"><path id="ProcessOnPath1191" d="M80.50000000000006 0.0Q72.45000000000005 0.0 72.45000000000005 9.0L72.45000000000005 352.625Q72.45000000000005 361.625 58.50000000000006 361.625Q72.45000000000005 361.625 72.45000000000005 370.625L72.45000000000005 714.25Q72.45000000000005 723.25 80.50000000000006 723.25" stroke="#323232" stroke-width="2.0" stroke-dasharray="none" opacity="1.0" fill="none"/><path id="ProcessOnPath1192" d="M0.0 0.0L80.50000000000006 0.0L80.50000000000006 723.25L0.0 723.25Z" stroke="none" stroke-width="0.0" stroke-dasharray="none" opacity="1.0" fill="none"/></g><g id="ProcessOnG1193" transform="matrix(6.123233995736766E-17,1.0,-1.0,6.123233995736766E-17,322.5,37.000000000000036)" opacity="1.0"><path id="ProcessOnPath1194" d="M102.12499999999994 0.0Q93.12499999999994 0.0 93.12499999999994 9.0L93.12499999999994 111.25Q93.12499999999994 120.25 80.12499999999994 120.25Q93.12499999999994 120.25 93.12499999999994 129.25L93.12499999999994 231.5Q93.12499999999994 240.5 102.12499999999994 240.5" stroke="#323232" stroke-width="2.0" stroke-dasharray="none" opacity="1.0" fill="none"/><path id="ProcessOnPath1195" d="M0.0 0.0L102.12499999999994 0.0L102.12499999999994 240.5L0.0 240.5Z" stroke="none" stroke-width="0.0" stroke-dasharray="none" opacity="1.0" fill="none"/></g><g id="ProcessOnG1196" transform="matrix(1.0,0.0,0.0,1.0,122.74999999999994,50.0)" opacity="1.0"><path id="ProcessOnPath1197" d="M0.0 0.0L159.00000000000003 0.0L159.00000000000003 71.0L0.0 71.0Z" stroke="none" stroke-width="0.0" stroke-dasharray="none" opacity="1.0" fill="none"/><g id="ProcessOnG1198" transform="matrix(1.0,0.0,0.0,1.0,0.0,5.5)"><text id="ProcessOnText1199" fill="#000000" font-size="16" x="78.50000000000001" y="16.4" font-family="微软雅黑" font-weight="normal" font-style="normal" text-decoration="none" family="微软雅黑" text-anchor="middle" size="16">在这个阶段分配内存</text><text id="ProcessOnText1200" fill="#000000" font-size="16" x="78.50000000000001" y="36.4" font-family="微软雅黑" font-weight="normal" font-style="normal" text-decoration="none" family="微软雅黑" text-anchor="middle" size="16">新创建的对象会被标</text><text id="ProcessOnText1201" fill="#000000" font-size="16" x="78.50000000000001" y="56.4" font-family="微软雅黑" font-weight="normal" font-style="normal" text-decoration="none" family="微软雅黑" text-anchor="middle" size="16">记为第一种白色</text></g></g><g id="ProcessOnG1202" transform="matrix(1.0,0.0,0.0,1.0,605.875,45.0)" opacity="1.0"><path id="ProcessOnPath1203" d="M0.0 0.0L159.00000000000003 0.0L159.00000000000003 71.0L0.0 71.0Z" stroke="none" stroke-width="0.0" stroke-dasharray="none" opacity="1.0" fill="none"/><g id="ProcessOnG1204" transform="matrix(1.0,0.0,0.0,1.0,0.0,5.5)"><text id="ProcessOnText1205" fill="#000000" font-size="16" x="78.50000000000001" y="16.4" font-family="微软雅黑" font-weight="normal" font-style="normal" text-decoration="none" family="微软雅黑" text-anchor="middle" size="16">在这个阶段分配内存</text><text id="ProcessOnText1206" fill="#000000" font-size="16" x="78.50000000000001" y="36.4" font-family="微软雅黑" font-weight="normal" font-style="normal" text-decoration="none" family="微软雅黑" text-anchor="middle" size="16">新创建的对象会被标</text><text id="ProcessOnText1207" fill="#000000" font-size="16" x="78.50000000000001" y="56.4" font-family="微软雅黑" font-weight="normal" font-style="normal" text-decoration="none" family="微软雅黑" text-anchor="middle" size="16">记为第二种白色</text></g></g></g></g></svg>