<svg xmlns="http://www.w3.org/2000/svg" xmlns:xlink="http://www.w3.org/1999/xlink" id="processonSvg1000" viewBox="24.6875 31.0 981.5625 764.0" width="981.5625" height="764.0"><defs id="ProcessOnDefs1001"><marker id="ProcessOnMarker1091" markerUnits="userSpaceOnUse" orient="auto" markerWidth="16.23606797749979" markerHeight="10.550836550532098" viewBox="-1.0 -1.3763819204711736 16.23606797749979 10.550836550532098" refX="-1.0" refY="3.8990363547948754"><path id="ProcessOnPath1092" d="M12.0 3.8990363547948754L0.0 7.798072709589751V0.0Z" stroke="#323232" stroke-width="2.0" fill="#323232" transform="matrix(1.0,0.0,0.0,1.0,0.0,0.0)"/></marker><marker id="ProcessOnMarker1100" markerUnits="userSpaceOnUse" orient="auto" markerWidth="16.23606797749979" markerHeight="10.550836550532098" viewBox="-1.0 -1.3763819204711736 16.23606797749979 10.550836550532098" refX="-1.0" refY="3.8990363547948754"><path id="ProcessOnPath1101" d="M12.0 3.8990363547948754L0.0 7.798072709589751V0.0Z" stroke="#323232" stroke-width="2.0" fill="#323232" transform="matrix(1.0,0.0,0.0,1.0,0.0,0.0)"/></marker><marker id="ProcessOnMarker1104" markerUnits="userSpaceOnUse" orient="auto" markerWidth="16.23606797749979" markerHeight="10.550836550532098" viewBox="-1.0 -1.3763819204711736 16.23606797749979 10.550836550532098" refX="-1.0" refY="3.8990363547948754"><path id="ProcessOnPath1105" d="M12.0 3.8990363547948754L0.0 7.798072709589751V0.0Z" stroke="#323232" stroke-width="2.0" fill="#323232" transform="matrix(1.0,0.0,0.0,1.0,0.0,0.0)"/></marker><marker id="ProcessOnMarker1152" markerUnits="userSpaceOnUse" orient="auto" markerWidth="16.23606797749979" markerHeight="10.550836550532098" viewBox="-1.0 -1.3763819204711736 16.23606797749979 10.550836550532098" refX="-1.0" refY="3.8990363547948754"><path id="ProcessOnPath1153" d="M12.0 3.8990363547948754L0.0 7.798072709589751V0.0Z" stroke="#323232" stroke-width="2.0" fill="#323232" transform="matrix(1.0,0.0,0.0,1.0,0.0,0.0)"/></marker><marker id="ProcessOnMarker1156" markerUnits="userSpaceOnUse" orient="auto" markerWidth="16.23606797749979" markerHeight="10.550836550532098" viewBox="-1.0 -1.3763819204711736 16.23606797749979 10.550836550532098" refX="-1.0" refY="3.8990363547948754"><path id="ProcessOnPath1157" d="M12.0 3.8990363547948754L0.0 7.798072709589751V0.0Z" stroke="#323232" stroke-width="2.0" fill="#323232" transform="matrix(1.0,0.0,0.0,1.0,0.0,0.0)"/></marker><marker id="ProcessOnMarker1167" markerUnits="userSpaceOnUse" orient="auto" markerWidth="16.23606797749979" markerHeight="10.550836550532098" viewBox="-1.0 -1.3763819204711736 16.23606797749979 10.550836550532098" refX="-1.0" refY="3.8990363547948754"><path id="ProcessOnPath1168" d="M12.0 3.8990363547948754L0.0 7.798072709589751V0.0Z" stroke="#323232" stroke-width="2.0" fill="#323232" transform="matrix(1.0,0.0,0.0,1.0,0.0,0.0)"/></marker><marker id="ProcessOnMarker1171" markerUnits="userSpaceOnUse" orient="auto" markerWidth="16.23606797749979" markerHeight="10.550836550532098" viewBox="-1.0 -1.3763819204711736 16.23606797749979 10.550836550532098" refX="-1.0" refY="3.8990363547948754"><path id="ProcessOnPath1172" d="M12.0 3.8990363547948754L0.0 7.798072709589751V0.0Z" stroke="#323232" stroke-width="2.0" fill="#323232" transform="matrix(1.0,0.0,0.0,1.0,0.0,0.0)"/></marker><marker id="ProcessOnMarker1175" markerUnits="userSpaceOnUse" orient="auto" markerWidth="16.23606797749979" markerHeight="10.550836550532098" viewBox="-1.0 -1.3763819204711736 16.23606797749979 10.550836550532098" refX="-1.0" refY="3.8990363547948754"><path id="ProcessOnPath1176" d="M12.0 3.8990363547948754L0.0 7.798072709589751V0.0Z" stroke="#323232" stroke-width="2.0" fill="#323232" transform="matrix(1.0,0.0,0.0,1.0,0.0,0.0)"/></marker><marker id="ProcessOnMarker1179" markerUnits="userSpaceOnUse" orient="auto" markerWidth="16.23606797749979" markerHeight="10.550836550532098" viewBox="-1.0 -1.3763819204711736 16.23606797749979 10.550836550532098" refX="-1.0" refY="3.8990363547948754"><path id="ProcessOnPath1180" d="M12.0 3.8990363547948754L0.0 7.798072709589751V0.0Z" stroke="#323232" stroke-width="2.0" fill="#323232" transform="matrix(1.0,0.0,0.0,1.0,0.0,0.0)"/></marker></defs><g id="ProcessOnG1002"><path id="ProcessOnPath1003" d="M24.6875 31.0H1006.25V795.0H24.6875V31.0Z" fill="none"/><g id="ProcessOnG1004"><g id="ProcessOnG1005" transform="matrix(1.0,0.0,0.0,1.0,56.0,51.0)" opacity="1.0"><path id="ProcessOnPath1006" d="M0.0 0.0L720.0 0.0L720.0 36.0L0.0 36.0Z" stroke="#323232" stroke-width="2.0" stroke-dasharray="none" opacity="1.0" fill="#ccffe6"/><g id="ProcessOnG1007" transform="matrix(1.0,0.0,0.0,1.0,10.0,8.0)"><text id="ProcessOnText1008" fill="#000000" font-size="16" x="349.0" y="16.4" font-family="微软雅黑" font-weight="normal" font-style="normal" text-decoration="none" family="微软雅黑" text-anchor="middle" size="16">Lua代码调用函数实现功能</text></g></g><g id="ProcessOnG1009" transform="matrix(1.0,0.0,0.0,1.0,56.0,151.0)" opacity="1.0"><path id="ProcessOnPath1010" d="M0.0 0.0L210.0 0.0L210.0 36.0L0.0 36.0Z" stroke="#323232" stroke-width="2.0" stroke-dasharray="none" opacity="1.0" fill="#ccccff"/><g id="ProcessOnG1011" transform="matrix(1.0,0.0,0.0,1.0,10.0,8.0)"><text id="ProcessOnText1012" fill="#000000" font-size="16" x="94.0" y="16.4" font-family="微软雅黑" font-weight="normal" font-style="normal" text-decoration="none" family="微软雅黑" text-anchor="middle" size="16">Lua仅普通操作的API</text></g></g><g id="ProcessOnG1013" transform="matrix(1.0,0.0,0.0,1.0,322.25,151.0)" opacity="1.0"><path id="ProcessOnPath1014" d="M0.0 0.0L230.0 0.0L230.0 36.0L0.0 36.0Z" stroke="#323232" stroke-width="2.0" stroke-dasharray="none" opacity="1.0" fill="#cce5ff"/><g id="ProcessOnG1015" transform="matrix(1.0,0.0,0.0,1.0,10.0,8.0)"><text id="ProcessOnText1016" fill="#000000" font-size="16" x="104.0" y="16.4" font-family="微软雅黑" font-weight="normal" font-style="normal" text-decoration="none" family="微软雅黑" text-anchor="middle" size="16">Lua需要分配内存的API</text></g></g><g id="ProcessOnG1017" transform="matrix(1.0,0.0,0.0,1.0,615.5000000000001,151.0)" opacity="1.0"><path id="ProcessOnPath1018" d="M0.0 0.0L160.0 0.0L160.0 36.0L0.0 36.0Z" stroke="#323232" stroke-width="2.0" stroke-dasharray="none" opacity="1.0" fill="#ccccff"/><g id="ProcessOnG1019" transform="matrix(1.0,0.0,0.0,1.0,10.0,8.0)"><text id="ProcessOnText1020" fill="#000000" font-size="16" x="69.0" y="16.4" font-family="微软雅黑" font-weight="normal" font-style="normal" text-decoration="none" family="微软雅黑" text-anchor="middle" size="16">用户注册的函数</text></g></g><g id="ProcessOnG1021" transform="matrix(1.0,0.0,0.0,1.0,374.25,87.0)" opacity="1.0"><path id="ProcessOnPath1022" d="M41.580000000000005 0.0L84.42 0.0L84.42 35.2L126.0 35.2L63.0 64.0L0.0 35.2L41.580000000000005 35.2L41.580000000000005 0.0Z" stroke="#323232" stroke-width="2.0" stroke-dasharray="none" opacity="1.0" fill="#ccffe6"/><g id="ProcessOnG1023" transform="matrix(1.0,0.0,0.0,1.0,-25.200000000000003,18.8)"><text id="ProcessOnText1024" fill="#000000" font-size="16" x="87.19999999999999" y="16.4" font-family="微软雅黑" font-weight="normal" font-style="normal" text-decoration="none" family="微软雅黑" text-anchor="middle" size="16">调用</text></g></g><g id="ProcessOnG1025" transform="matrix(1.0,0.0,0.0,1.0,98.0,87.0)" opacity="1.0"><path id="ProcessOnPath1026" d="M41.580000000000005 0.0L84.42 0.0L84.42 35.2L126.0 35.2L63.0 64.0L0.0 35.2L41.580000000000005 35.2L41.580000000000005 0.0Z" stroke="#323232" stroke-width="2.0" stroke-dasharray="none" opacity="1.0" fill="#ccffe6"/><g id="ProcessOnG1027" transform="matrix(1.0,0.0,0.0,1.0,-25.200000000000003,18.8)"><text id="ProcessOnText1028" fill="#000000" font-size="16" x="87.19999999999999" y="16.4" font-family="微软雅黑" font-weight="normal" font-style="normal" text-decoration="none" family="微软雅黑" text-anchor="middle" size="16">调用</text></g></g><g id="ProcessOnG1029" transform="matrix(1.0,0.0,0.0,1.0,641.0,87.0)" opacity="1.0"><path id="ProcessOnPath1030" d="M41.580000000000005 0.0L84.42 0.0L84.42 35.2L126.0 35.2L63.0 64.0L0.0 35.2L41.580000000000005 35.2L41.580000000000005 0.0Z" stroke="#323232" stroke-width="2.0" stroke-dasharray="none" opacity="1.0" fill="#ccffe6"/><g id="ProcessOnG1031" transform="matrix(1.0,0.0,0.0,1.0,-25.200000000000003,18.8)"><text id="ProcessOnText1032" fill="#000000" font-size="16" x="87.19999999999999" y="16.4" font-family="微软雅黑" font-weight="normal" font-style="normal" text-decoration="none" family="微软雅黑" text-anchor="middle" size="16">调用</text></g></g><g id="ProcessOnG1033" transform="matrix(1.0,0.0,0.0,1.0,322.0,187.0)" opacity="1.0"><path id="ProcessOnPath1034" d="M75.9 0.0L154.10000000000002 0.0L154.10000000000002 35.2L230.0 35.2L115.0 64.0L0.0 35.2L75.9 35.2L75.9 0.0Z" stroke="#323232" stroke-width="2.0" stroke-dasharray="none" opacity="1.0" fill="#cce5ff"/><g id="ProcessOnG1035" transform="matrix(1.0,0.0,0.0,1.0,-46.0,18.8)"><text id="ProcessOnText1036" fill="#000000" font-size="16" x="160.0" y="16.4" font-family="微软雅黑" font-weight="normal" font-style="normal" text-decoration="none" family="微软雅黑" text-anchor="middle" size="16">影响GC</text></g></g><g id="ProcessOnG1037" transform="matrix(6.123233995736766E-17,1.0,-1.0,6.123233995736766E-17,775.6249999999999,491.75)" opacity="1.0"><path id="ProcessOnPath1038" d="M0.0 0.0L200.0 0.0L200.0 36.499999999999886L0.0 36.499999999999886Z" stroke="#323232" stroke-width="2.0" stroke-dasharray="none" opacity="1.0" fill="#ffcccc"/></g><g id="ProcessOnG1039" transform="matrix(1.0,0.0,0.0,1.0,739.375,693.0)" opacity="1.0"><path id="ProcessOnPath1040" d="M0.0 0.0L36.0 0.0L36.0 36.0L0.0 36.0Z" stroke="none" stroke-width="0.0" stroke-dasharray="none" opacity="1.0" fill="none"/><g id="ProcessOnG1041" transform="matrix(1.0,0.0,0.0,1.0,0.0,9.875)"><text id="ProcessOnText1042" fill="#000000" font-size="13" x="17.0" y="13.325" font-family="微软雅黑" font-weight="normal" font-style="normal" text-decoration="none" family="微软雅黑" text-anchor="middle" size="13">0</text></g></g><g id="ProcessOnG1043" transform="matrix(6.123233995736766E-17,1.0,-1.0,6.123233995736766E-17,775.375,390.5000000000001)" opacity="1.0"><path id="ProcessOnPath1044" d="M0.0 0.0L100.0 0.0L100.0 36.0L0.0 36.0Z" stroke="#323232" stroke-width="2.0" stroke-dasharray="none" opacity="1.0" fill="#ffe6cc"/></g><g id="ProcessOnG1045" transform="matrix(6.123233995736766E-17,1.0,-1.0,6.123233995736766E-17,775.375,354.375)" opacity="1.0"><path id="ProcessOnPath1046" d="M0.0 0.0L36.25000000000023 0.0L36.25000000000023 36.0L0.0 36.0Z" stroke="#323232" stroke-width="2.0" stroke-dasharray="none" opacity="1.0" fill="#ffffcc"/></g><g id="ProcessOnG1047" transform="matrix(1.0,0.0,0.0,1.0,783.0000000000001,392.0)" opacity="1.0"><path id="ProcessOnPath1048" d="M0.0 301.0Q9.0 301.0 9.0 292.0L9.0 159.5Q9.0 150.5 22.0 150.5Q9.0 150.5 9.0 141.5L9.0 9.0Q9.0 0.0 0.0 0.0" stroke="#323232" stroke-width="2.0" stroke-dasharray="none" opacity="1.0" fill="none"/><path id="ProcessOnPath1049" d="M0.0 0.0L155.9999999999999 0.0L155.9999999999999 301.0L0.0 301.0Z" stroke="none" stroke-width="0.0" stroke-dasharray="none" opacity="1.0" fill="none"/><g id="ProcessOnG1050" transform="matrix(1.0,0.0,0.0,1.0,27.0,110.5)"><text id="ProcessOnText1051" fill="#000000" font-size="16" x="0.0" y="16.4" font-family="微软雅黑" font-weight="normal" font-style="normal" text-decoration="none" family="微软雅黑" text-anchor="start" size="16">通过g-&gt;frealloc</text><text id="ProcessOnText1052" fill="#000000" font-size="16" x="0.0" y="36.4" font-family="微软雅黑" font-weight="normal" font-style="normal" text-decoration="none" family="微软雅黑" text-anchor="start" size="16">分配的堆内存=</text><text id="ProcessOnText1053" fill="#000000" font-size="16" x="0.0" y="56.4" font-family="微软雅黑" font-weight="normal" font-style="normal" text-decoration="none" family="微软雅黑" text-anchor="start" size="16">g-&gt;totalbytes+</text><text id="ProcessOnText1054" fill="#000000" font-size="16" x="0.0" y="76.4" font-family="微软雅黑" font-weight="normal" font-style="normal" text-decoration="none" family="微软雅黑" text-anchor="start" size="16">g-&gt;GCdebt</text></g></g><g id="ProcessOnG1055" transform="matrix(1.0,0.0,0.0,1.0,579.0,493.0)" opacity="1.0"><path id="ProcessOnPath1056" d="M150.0 0.0Q141.0 0.0 141.0 9.0L141.0 91.0Q141.0 100.0 128.0 100.0Q141.0 100.0 141.0 109.0L141.0 191.0Q141.0 200.0 150.0 200.0" stroke="#323232" stroke-width="2.0" stroke-dasharray="none" opacity="1.0" fill="none"/><path id="ProcessOnPath1057" d="M0.0 0.0L150.0 0.0L150.0 200.0L0.0 200.0Z" stroke="none" stroke-width="0.0" stroke-dasharray="none" opacity="1.0" fill="none"/><g id="ProcessOnG1058" transform="matrix(1.0,0.0,0.0,1.0,0.0,70.0)"><text id="ProcessOnText1059" fill="#000000" font-size="16" x="121.0" y="16.4" font-family="微软雅黑" font-weight="normal" font-style="normal" text-decoration="none" family="微软雅黑" text-anchor="end" size="16">Lua预估不需要</text><text id="ProcessOnText1060" fill="#000000" font-size="16" x="121.0" y="36.4" font-family="微软雅黑" font-weight="normal" font-style="normal" text-decoration="none" family="微软雅黑" text-anchor="end" size="16">被回收的内存值</text><text id="ProcessOnText1061" fill="#000000" font-size="16" x="121.0" y="56.4" font-family="微软雅黑" font-weight="normal" font-style="normal" text-decoration="none" family="微软雅黑" text-anchor="end" size="16">g-&gt;GCestimate</text></g></g><g id="ProcessOnG1062" transform="matrix(1.0,0.0,0.0,1.0,783.0000000000001,356.0)" opacity="1.0"><path id="ProcessOnPath1063" d="M0.0 36.0Q9.0 36.0 9.0 32.4L9.0 21.6Q9.0 18.0 22.0 18.0Q9.0 18.0 9.0 14.4L9.0 3.6Q9.0 0.0 0.0 0.0" stroke="#323232" stroke-width="2.0" stroke-dasharray="none" opacity="1.0" fill="none"/><path id="ProcessOnPath1064" d="M0.0 0.0L170.0 0.0L170.0 36.0L0.0 36.0Z" stroke="none" stroke-width="0.0" stroke-dasharray="none" opacity="1.0" fill="none"/><g id="ProcessOnG1065" transform="matrix(1.0,0.0,0.0,1.0,27.0,-2.0)"><text id="ProcessOnText1066" fill="#000000" font-size="16" x="0.0" y="16.4" font-family="微软雅黑" font-weight="normal" font-style="normal" text-decoration="none" family="微软雅黑" text-anchor="start" size="16">B点低于C点则</text><text id="ProcessOnText1067" fill="#000000" font-size="16" x="0.0" y="36.4" font-family="微软雅黑" font-weight="normal" font-style="normal" text-decoration="none" family="微软雅黑" text-anchor="start" size="16">g-&gt;GCdebt是负值</text></g></g><g id="ProcessOnG1068" transform="matrix(1.0,0.0,0.0,1.0,579.0,334.0)" opacity="1.0"><path id="ProcessOnPath1069" d="M0.0 0.0L118.0 0.0L118.0 45.0L0.0 45.0Z" stroke="none" stroke-width="0.0" stroke-dasharray="none" opacity="1.0" fill="none"/><g id="ProcessOnG1070" transform="matrix(1.0,0.0,0.0,1.0,0.0,2.5)"><text id="ProcessOnText1071" fill="#000000" font-size="16" x="58.0" y="16.4" font-family="微软雅黑" font-weight="normal" font-style="normal" text-decoration="none" family="微软雅黑" text-anchor="middle" size="16">g-&gt;totalbytes</text><text id="ProcessOnText1072" fill="#000000" font-size="16" x="58.0" y="36.4" font-family="微软雅黑" font-weight="normal" font-style="normal" text-decoration="none" family="微软雅黑" text-anchor="middle" size="16">触发GC的阀值</text></g></g><g id="ProcessOnG1073" transform="matrix(1.0,0.0,0.0,1.0,688.0000000000001,481.0)" opacity="1.0"><path id="ProcessOnPath1074" d="M0.0 0.0L31.999999999999886 0.0L31.999999999999886 21.0L0.0 21.0Z" stroke="none" stroke-width="0.0" stroke-dasharray="none" opacity="1.0" fill="none"/><g id="ProcessOnG1075" transform="matrix(1.0,0.0,0.0,1.0,0.0,2.375)"><text id="ProcessOnText1076" fill="#000000" font-size="13" x="14.999999999999943" y="13.325" font-family="微软雅黑" font-weight="normal" font-style="normal" text-decoration="none" family="微软雅黑" text-anchor="middle" size="13">A点</text></g></g><g id="ProcessOnG1077" transform="matrix(1.0,0.0,0.0,1.0,691.0,383.0)" opacity="1.0"><path id="ProcessOnPath1078" d="M0.0 0.0L31.999999999999886 0.0L31.999999999999886 21.0L0.0 21.0Z" stroke="none" stroke-width="0.0" stroke-dasharray="none" opacity="1.0" fill="none"/><g id="ProcessOnG1079" transform="matrix(1.0,0.0,0.0,1.0,0.0,2.375)"><text id="ProcessOnText1080" fill="#000000" font-size="13" x="14.999999999999943" y="13.325" font-family="微软雅黑" font-weight="normal" font-style="normal" text-decoration="none" family="微软雅黑" text-anchor="middle" size="13">B点</text></g></g><g id="ProcessOnG1081" transform="matrix(1.0,0.0,0.0,1.0,691.0,346.0)" opacity="1.0"><path id="ProcessOnPath1082" d="M0.0 0.0L31.999999999999886 0.0L31.999999999999886 21.0L0.0 21.0Z" stroke="none" stroke-width="0.0" stroke-dasharray="none" opacity="1.0" fill="none"/><g id="ProcessOnG1083" transform="matrix(1.0,0.0,0.0,1.0,0.0,2.375)"><text id="ProcessOnText1084" fill="#000000" font-size="13" x="14.999999999999943" y="13.325" font-family="微软雅黑" font-weight="normal" font-style="normal" text-decoration="none" family="微软雅黑" text-anchor="middle" size="13">C点</text></g></g><g id="ProcessOnG1085" transform="matrix(1.0,0.0,0.0,1.0,307.25,288.0)" opacity="1.0"><path id="ProcessOnPath1086" d="M0.0 0.0L260.0 0.0L260.0 36.0L0.0 36.0Z" stroke="#323232" stroke-width="2.0" stroke-dasharray="none" opacity="1.0" fill="#e5ccff"/><g id="ProcessOnG1087" transform="matrix(1.0,0.0,0.0,1.0,10.0,8.0)"><text id="ProcessOnText1088" fill="#000000" font-size="16" x="119.0" y="16.4" font-family="微软雅黑" font-weight="normal" font-style="normal" text-decoration="none" family="微软雅黑" text-anchor="middle" size="16">根据分配内存大小调整B点</text></g></g><g id="ProcessOnG1089"><path id="ProcessOnPath1090" d="M437.0 251.0L437.0 269.5L437.25 269.5L437.25 272.7639320225002" stroke="#323232" stroke-width="2.0" stroke-dasharray="none" fill="none" marker-end="url(#ProcessOnMarker1091)"/></g><g id="ProcessOnG1093" transform="matrix(1.0,0.0,0.0,1.0,392.25,366.5000000000001)" opacity="1.0"><path id="ProcessOnPath1094" d="M0.0 35.0L45.0 0.0L90.0 35.0L45.0 70.0L0.0 35.0Z" stroke="#323232" stroke-width="2.0" stroke-dasharray="none" opacity="1.0" fill="#e5ccff"/><g id="ProcessOnG1095" transform="matrix(1.0,0.0,0.0,1.0,10.0,15.0)"><text id="ProcessOnText1096" fill="#000000" font-size="16" x="34.0" y="16.4" font-family="微软雅黑" font-weight="normal" font-style="normal" text-decoration="none" family="微软雅黑" text-anchor="middle" size="16">B点高于</text><text id="ProcessOnText1097" fill="#000000" font-size="16" x="34.0" y="36.4" font-family="微软雅黑" font-weight="normal" font-style="normal" text-decoration="none" family="微软雅黑" text-anchor="middle" size="16">C点</text></g></g><g id="ProcessOnG1098"><path id="ProcessOnPath1099" d="M437.25 324.0L437.25 345.25000000000006L437.25 345.25000000000006L437.25 351.26393202250034" stroke="#323232" stroke-width="2.0" stroke-dasharray="none" fill="none" marker-end="url(#ProcessOnMarker1100)"/></g><g id="ProcessOnG1102"><path id="ProcessOnPath1103" d="M437.25 436.5000000000001L437.25 458.5000000000001L437.25 458.5000000000001L437.25 465.26393202250034" stroke="#323232" stroke-width="2.0" stroke-dasharray="none" fill="none" marker-end="url(#ProcessOnMarker1104)"/></g><g id="ProcessOnG1106" transform="matrix(1.0,0.0,0.0,1.0,357.5,480.5000000000001)" opacity="1.0"><path id="ProcessOnPath1107" d="M0.0 0.0L159.5 0.0L159.5 53.0L0.0 53.0Z" stroke="#323232" stroke-width="2.0" stroke-dasharray="none" opacity="1.0" fill="#e5ccff"/><g id="ProcessOnG1108" transform="matrix(1.0,0.0,0.0,1.0,10.0,6.5)"><text id="ProcessOnText1109" fill="#000000" font-size="16" x="68.75" y="16.4" font-family="微软雅黑" font-weight="normal" font-style="normal" text-decoration="none" family="微软雅黑" text-anchor="middle" size="16">扫描至少2400字节</text><text id="ProcessOnText1110" fill="#000000" font-size="16" x="68.75" y="36.4" font-family="微软雅黑" font-weight="normal" font-style="normal" text-decoration="none" family="微软雅黑" text-anchor="middle" size="16">或者本次周期结束</text></g></g><g id="ProcessOnG1111" transform="matrix(1.0,0.0,0.0,1.0,330.625,702.0)" opacity="1.0"><path id="ProcessOnPath1112" d="M0.0 0.0L213.25 0.0L213.25 73.0L0.0 73.0Z" stroke="#323232" stroke-width="2.0" stroke-dasharray="none" opacity="1.0" fill="#e5ccff"/><g id="ProcessOnG1113" transform="matrix(1.0,0.0,0.0,1.0,10.0,6.5)"><text id="ProcessOnText1114" fill="#000000" font-size="16" x="95.625" y="16.4" font-family="微软雅黑" font-weight="normal" font-style="normal" text-decoration="none" family="微软雅黑" text-anchor="middle" size="16">重新调整C点为下一次触发</text><text id="ProcessOnText1115" fill="#000000" font-size="16" x="95.625" y="36.4" font-family="微软雅黑" font-weight="normal" font-style="normal" text-decoration="none" family="微软雅黑" text-anchor="middle" size="16">GC之前至少分配的内存量(</text><text id="ProcessOnText1116" fill="#000000" font-size="16" x="95.625" y="56.4" font-family="微软雅黑" font-weight="normal" font-style="normal" text-decoration="none" family="微软雅黑" text-anchor="middle" size="16">高于B点至少2400字节)</text></g></g><g id="ProcessOnG1117" transform="matrix(1.0,0.0,0.0,1.0,266.0,139.0)" opacity="1.0"><path id="ProcessOnPath1118" d="M0.0 19.8L30.8 19.8L30.8 0.0L56.0 30.0L30.8 60.0L30.8 40.2L0.0 40.2L0.0 19.8Z" stroke="#323232" stroke-width="2.0" stroke-dasharray="none" opacity="1.0" fill="#ccccff"/><g id="ProcessOnG1119" transform="matrix(1.0,0.0,0.0,1.0,0.0,21.875)"><text id="ProcessOnText1120" fill="#000000" font-size="13" x="27.0" y="13.325" font-family="微软雅黑" font-weight="normal" font-style="normal" text-decoration="none" family="微软雅黑" text-anchor="middle" size="13">调用</text></g></g><g id="ProcessOnG1121" transform="matrix(1.0,0.0,0.0,1.0,552.0,139.0)" opacity="1.0"><path id="ProcessOnPath1122" d="M0.0 30.0L28.575000000000053 0.0L28.575000000000053 19.8L63.500000000000114 19.8L63.500000000000114 40.2L28.575000000000053 40.2L28.575000000000053 60.0L0.0 30.0Z" stroke="#323232" stroke-width="2.0" stroke-dasharray="none" opacity="1.0" fill="#ccccff"/><g id="ProcessOnG1123" transform="matrix(1.0,0.0,0.0,1.0,0.0,21.875)"><text id="ProcessOnText1124" fill="#000000" font-size="13" x="30.750000000000057" y="13.325" font-family="微软雅黑" font-weight="normal" font-style="normal" text-decoration="none" family="微软雅黑" text-anchor="middle" size="13">调用</text></g></g><g id="ProcessOnG1125" transform="matrix(1.0,0.0,0.0,1.0,599.375,205.0)" opacity="1.0"><path id="ProcessOnPath1126" d="M0.0 0.0L316.0 0.0L316.0 120.0L0.0 120.0Z" stroke="none" stroke-width="0.0" stroke-dasharray="none" opacity="1.0" fill="none"/><g id="ProcessOnG1127" transform="matrix(1.0,0.0,0.0,1.0,0.0,10.0)"><text id="ProcessOnText1128" fill="#000000" font-size="16" x="157.0" y="16.4" font-family="微软雅黑" font-weight="normal" font-style="italic" text-decoration="none" family="微软雅黑" text-anchor="middle" size="16">初始状态(刚创建lua_State)：A点为0，C点</text><text id="ProcessOnText1129" fill="#000000" font-size="16" x="157.0" y="36.4" font-family="微软雅黑" font-weight="normal" font-style="italic" text-decoration="none" family="微软雅黑" text-anchor="middle" size="16">为sizeof(LG)，B点处于C点之上（初始化字</text><text id="ProcessOnText1130" fill="#000000" font-size="16" x="157.0" y="56.4" font-family="微软雅黑" font-weight="normal" font-style="italic" text-decoration="none" family="微软雅黑" text-anchor="middle" size="16">符串表、注册表等不会触发GC，因此B点一</text><text id="ProcessOnText1131" fill="#000000" font-size="16" x="157.0" y="76.4" font-family="微软雅黑" font-weight="normal" font-style="italic" text-decoration="none" family="微软雅黑" text-anchor="middle" size="16">直被往上调整，可以看出，创建完lua_State</text><text id="ProcessOnText1132" fill="#000000" font-size="16" x="157.0" y="96.4" font-family="微软雅黑" font-weight="normal" font-style="italic" text-decoration="none" family="微软雅黑" text-anchor="middle" size="16">之后的第一次内存分配肯定会触发一步GC）</text></g></g><g id="ProcessOnG1133" transform="matrix(1.0,0.0,0.0,1.0,353.25,374.5000000000001)" opacity="1.0"><path id="ProcessOnPath1134" d="M0.0 0.0L39.0 0.0L39.0 24.499999999999886L0.0 24.499999999999886Z" stroke="none" stroke-width="0.0" stroke-dasharray="none" opacity="1.0" fill="none"/><g id="ProcessOnG1135" transform="matrix(1.0,0.0,0.0,1.0,0.0,4.124999999999943)"><text id="ProcessOnText1136" fill="#000000" font-size="13" x="18.5" y="13.325" font-family="微软雅黑" font-weight="normal" font-style="normal" text-decoration="none" family="微软雅黑" text-anchor="middle" size="13">否</text></g></g><g id="ProcessOnG1137" transform="matrix(1.0,0.0,0.0,1.0,428.0,436.5000000000001)" opacity="1.0"><path id="ProcessOnPath1138" d="M0.0 0.0L39.0 0.0L39.0 24.499999999999886L0.0 24.499999999999886Z" stroke="none" stroke-width="0.0" stroke-dasharray="none" opacity="1.0" fill="none"/><g id="ProcessOnG1139" transform="matrix(1.0,0.0,0.0,1.0,0.0,4.124999999999943)"><text id="ProcessOnText1140" fill="#000000" font-size="13" x="18.5" y="13.325" font-family="微软雅黑" font-weight="normal" font-style="normal" text-decoration="none" family="微软雅黑" text-anchor="middle" size="13">是</text></g></g><g id="ProcessOnG1141" transform="matrix(1.0,0.0,0.0,1.0,44.6875,606.0)" opacity="1.0"><path id="ProcessOnPath1142" d="M0.0 0.0L61.125 0.0L61.125 30.0L0.0 30.0Z" stroke="#323232" stroke-width="2.0" stroke-dasharray="none" opacity="1.0" fill="#e5ccff"/><g id="ProcessOnG1143" transform="matrix(1.0,0.0,0.0,1.0,10.0,5.0)"><text id="ProcessOnText1144" fill="#000000" font-size="16" x="19.5625" y="16.4" font-family="微软雅黑" font-weight="normal" font-style="normal" text-decoration="none" family="微软雅黑" text-anchor="middle" size="16">返回</text></g></g><g id="ProcessOnG1145" transform="matrix(1.0,0.0,0.0,1.0,392.25,586.0)" opacity="1.0"><path id="ProcessOnPath1146" d="M0.0 35.0L45.0 0.0L90.0 35.0L45.0 70.0L0.0 35.0Z" stroke="#323232" stroke-width="2.0" stroke-dasharray="none" opacity="1.0" fill="#e5ccff"/><g id="ProcessOnG1147" transform="matrix(1.0,0.0,0.0,1.0,10.0,15.0)"><text id="ProcessOnText1148" fill="#000000" font-size="16" x="34.0" y="16.4" font-family="微软雅黑" font-weight="normal" font-style="normal" text-decoration="none" family="微软雅黑" text-anchor="middle" size="16">本周期结</text><text id="ProcessOnText1149" fill="#000000" font-size="16" x="34.0" y="36.4" font-family="微软雅黑" font-weight="normal" font-style="normal" text-decoration="none" family="微软雅黑" text-anchor="middle" size="16">束</text></g></g><g id="ProcessOnG1150"><path id="ProcessOnPath1151" d="M437.25 533.5000000000001L437.25 559.75L437.25 559.75L437.25 570.7639320225002" stroke="#323232" stroke-width="2.0" stroke-dasharray="none" fill="none" marker-end="url(#ProcessOnMarker1152)"/></g><g id="ProcessOnG1154"><path id="ProcessOnPath1155" d="M437.25 656.0L437.25 679.0L437.25 679.0L437.25 686.7639320225002" stroke="#323232" stroke-width="2.0" stroke-dasharray="none" fill="none" marker-end="url(#ProcessOnMarker1156)"/></g><g id="ProcessOnG1158" transform="matrix(1.0,0.0,0.0,1.0,143.0,567.0)" opacity="1.0"><path id="ProcessOnPath1159" d="M0.0 0.0L207.875 0.0L207.875 108.0L0.0 108.0Z" stroke="#323232" stroke-width="2.0" stroke-dasharray="none" opacity="1.0" fill="#e5ccff"/><g id="ProcessOnG1160" transform="matrix(1.0,0.0,0.0,1.0,10.0,14.0)"><text id="ProcessOnText1161" fill="#000000" font-size="16" x="92.9375" y="16.4" font-family="微软雅黑" font-weight="normal" font-style="normal" text-decoration="none" family="微软雅黑" text-anchor="middle" size="16">C点调整为LUA_GCSETPA</text><text id="ProcessOnText1162" fill="#000000" font-size="16" x="92.9375" y="36.4" font-family="微软雅黑" font-weight="normal" font-style="normal" text-decoration="none" family="微软雅黑" text-anchor="middle" size="16">USE/100*g-&gt;GCestimat</text><text id="ProcessOnText1163" fill="#000000" font-size="16" x="92.9375" y="56.4" font-family="微软雅黑" font-weight="normal" font-style="normal" text-decoration="none" family="微软雅黑" text-anchor="middle" size="16">e，内存分配量达到C点才</text><text id="ProcessOnText1164" fill="#000000" font-size="16" x="92.9375" y="76.4" font-family="微软雅黑" font-weight="normal" font-style="normal" text-decoration="none" family="微软雅黑" text-anchor="middle" size="16">会触发下一个GC周期</text></g></g><g id="ProcessOnG1165"><path id="ProcessOnPath1166" d="M392.25 621.0L371.5625 621.0L371.5625 621.0L366.1110679774998 621.0" stroke="#323232" stroke-width="2.0" stroke-dasharray="none" fill="none" marker-end="url(#ProcessOnMarker1167)"/></g><g id="ProcessOnG1169"><path id="ProcessOnPath1170" d="M143.0 621.0L124.40625 621.0L124.40625 621.0L121.04856797749979 621.0" stroke="#323232" stroke-width="2.0" stroke-dasharray="none" fill="none" marker-end="url(#ProcessOnMarker1171)"/></g><g id="ProcessOnG1173"><path id="ProcessOnPath1174" d="M330.625 738.5L75.25 738.5L75.25 651.2360679774998" stroke="#323232" stroke-width="2.0" stroke-dasharray="none" fill="none" marker-end="url(#ProcessOnMarker1175)"/></g><g id="ProcessOnG1177"><path id="ProcessOnPath1178" d="M392.25 401.5000000000001L75.25 401.5000000000001L75.25 590.7639320225002" stroke="#323232" stroke-width="2.0" stroke-dasharray="none" fill="none" marker-end="url(#ProcessOnMarker1179)"/></g><g id="ProcessOnG1181" transform="matrix(1.0,0.0,0.0,1.0,357.5,596.0)" opacity="1.0"><path id="ProcessOnPath1182" d="M0.0 0.0L39.0 0.0L39.0 24.499999999999886L0.0 24.499999999999886Z" stroke="none" stroke-width="0.0" stroke-dasharray="none" opacity="1.0" fill="none"/><g id="ProcessOnG1183" transform="matrix(1.0,0.0,0.0,1.0,0.0,4.124999999999943)"><text id="ProcessOnText1184" fill="#000000" font-size="13" x="18.5" y="13.325" font-family="微软雅黑" font-weight="normal" font-style="normal" text-decoration="none" family="微软雅黑" text-anchor="middle" size="13">是</text></g></g><g id="ProcessOnG1185" transform="matrix(1.0,0.0,0.0,1.0,428.0,659.5000000000001)" opacity="1.0"><path id="ProcessOnPath1186" d="M0.0 0.0L39.0 0.0L39.0 24.499999999999886L0.0 24.499999999999886Z" stroke="none" stroke-width="0.0" stroke-dasharray="none" opacity="1.0" fill="none"/><g id="ProcessOnG1187" transform="matrix(1.0,0.0,0.0,1.0,0.0,4.124999999999943)"><text id="ProcessOnText1188" fill="#000000" font-size="13" x="18.5" y="13.325" font-family="微软雅黑" font-weight="normal" font-style="normal" text-decoration="none" family="微软雅黑" text-anchor="middle" size="13">否</text></g></g><g id="ProcessOnG1189" transform="matrix(1.0,0.0,0.0,1.0,567.25,717.0)" opacity="1.0"><path id="ProcessOnPath1190" d="M0.0 0.0L419.0 0.0L419.0 58.0L0.0 58.0Z" stroke="none" stroke-width="0.0" stroke-dasharray="none" opacity="1.0" fill="none"/><g id="ProcessOnG1191" transform="matrix(1.0,0.0,0.0,1.0,0.0,9.0)"><text id="ProcessOnText1192" fill="#000000" font-size="16" x="208.5" y="16.4" font-family="微软雅黑" font-weight="normal" font-style="normal" text-decoration="none" family="微软雅黑" text-anchor="middle" size="16">当所有应该被GC回收的内存都回收之后，A点和B点重合，</text><text id="ProcessOnText1193" fill="#000000" font-size="16" x="208.5" y="36.4" font-family="微软雅黑" font-weight="normal" font-style="normal" text-decoration="none" family="微软雅黑" text-anchor="middle" size="16">g-&gt;GCestimate == g-&gt;totalbytes + g-&gt;GCdebt</text></g></g></g></g></svg>