<svg xmlns="http://www.w3.org/2000/svg" xmlns:xlink="http://www.w3.org/1999/xlink" id="processonSvg1000" viewBox="61.0 42.0 666.0 333.0" width="666.0" height="333.0"><defs id="ProcessOnDefs1001"/><g id="ProcessOnG1002"><path id="ProcessOnPath1003" d="M61.0 42.0H727.0V375.0H61.0V42.0Z" fill="#ffffff"/><g id="ProcessOnG1004"><g id="ProcessOnG1005" transform="matrix(1.0,0.0,0.0,1.0,84.0,102.0)" opacity="1.0"><path id="ProcessOnPath1006" d="M0.0 4.0Q0.0 0.0 4.0 0.0L456.0 0.0Q460.0 0.0 460.0 4.0L460.0 249.0Q460.0 253.0 456.0 253.0L4.0 253.0Q0.0 253.0 0.0 249.0Z" stroke="#323232" stroke-width="2.0" stroke-dasharray="none" opacity="1.0" fill="#ffcccc"/></g><g id="ProcessOnG1007" transform="matrix(1.0,0.0,0.0,1.0,192.5,228.0)" opacity="1.0"><path id="ProcessOnPath1008" d="M0.0 4.0Q0.0 0.0 4.0 0.0L80.0 0.0Q84.0 0.0 84.0 4.0L84.0 40.0Q84.0 44.0 80.0 44.0L4.0 44.0Q0.0 44.0 0.0 40.0Z" stroke="#323232" stroke-width="2.0" stroke-dasharray="none" opacity="1.0" fill="#ffe6cc"/><g id="ProcessOnG1009" transform="matrix(1.0,0.0,0.0,1.0,10.0,12.0)"><text id="ProcessOnText1010" fill="#000000" font-size="16" x="31.0" y="16.4" font-family="微软雅黑" font-weight="normal" font-style="normal" text-decoration="none" family="微软雅黑" text-anchor="middle" size="16">TValue</text></g></g><g id="ProcessOnG1011" transform="matrix(1.0,0.0,0.0,1.0,192.5,184.0)" opacity="1.0"><path id="ProcessOnPath1012" d="M0.0 4.0Q0.0 0.0 4.0 0.0L80.0 0.0Q84.0 0.0 84.0 4.0L84.0 40.0Q84.0 44.0 80.0 44.0L4.0 44.0Q0.0 44.0 0.0 40.0Z" stroke="#323232" stroke-width="2.0" stroke-dasharray="none" opacity="1.0" fill="#ffe6cc"/><g id="ProcessOnG1013" transform="matrix(1.0,0.0,0.0,1.0,10.0,12.0)"><text id="ProcessOnText1014" fill="#000000" font-size="16" x="31.0" y="16.4" font-family="微软雅黑" font-weight="normal" font-style="normal" text-decoration="none" family="微软雅黑" text-anchor="middle" size="16">...</text></g></g><g id="ProcessOnG1015" transform="matrix(1.0,0.0,0.0,1.0,192.5,140.0)" opacity="1.0"><path id="ProcessOnPath1016" d="M0.0 4.0Q0.0 0.0 4.0 0.0L80.0 0.0Q84.0 0.0 84.0 4.0L84.0 40.0Q84.0 44.0 80.0 44.0L4.0 44.0Q0.0 44.0 0.0 40.0Z" stroke="#323232" stroke-width="2.0" stroke-dasharray="none" opacity="1.0" fill="#ffe6cc"/><g id="ProcessOnG1017" transform="matrix(1.0,0.0,0.0,1.0,10.0,12.0)"><text id="ProcessOnText1018" fill="#000000" font-size="16" x="31.0" y="16.4" font-family="微软雅黑" font-weight="normal" font-style="normal" text-decoration="none" family="微软雅黑" text-anchor="middle" size="16">TValue</text></g></g><g id="ProcessOnG1019" transform="matrix(1.0,0.0,0.0,1.0,184.5,102.0)" opacity="1.0"><path id="ProcessOnPath1020" d="M0.0 0.0L100.0 0.0L100.0 38.0L0.0 38.0Z" stroke="none" stroke-width="0.0" stroke-dasharray="none" opacity="1.0" fill="none"/><g id="ProcessOnG1021" transform="matrix(1.0,0.0,0.0,1.0,0.0,9.0)"><text id="ProcessOnText1022" fill="#000000" font-size="16" x="49.0" y="16.4" font-family="微软雅黑" font-weight="normal" font-style="normal" text-decoration="none" family="微软雅黑" text-anchor="middle" size="16">数组部分</text></g></g><g id="ProcessOnG1023" transform="matrix(1.0,0.0,0.0,1.0,434.5,228.0)" opacity="1.0"><path id="ProcessOnPath1024" d="M0.0 4.0Q0.0 0.0 4.0 0.0L80.0 0.0Q84.0 0.0 84.0 4.0L84.0 40.0Q84.0 44.0 80.0 44.0L4.0 44.0Q0.0 44.0 0.0 40.0Z" stroke="#323232" stroke-width="2.0" stroke-dasharray="none" opacity="1.0" fill="#ccffff"/><g id="ProcessOnG1025" transform="matrix(1.0,0.0,0.0,1.0,10.0,12.0)"><text id="ProcessOnText1026" fill="#000000" font-size="16" x="31.0" y="16.4" font-family="微软雅黑" font-weight="normal" font-style="normal" text-decoration="none" family="微软雅黑" text-anchor="middle" size="16">Node</text></g></g><g id="ProcessOnG1027" transform="matrix(1.0,0.0,0.0,1.0,434.5,184.0)" opacity="1.0"><path id="ProcessOnPath1028" d="M0.0 4.0Q0.0 0.0 4.0 0.0L80.0 0.0Q84.0 0.0 84.0 4.0L84.0 40.0Q84.0 44.0 80.0 44.0L4.0 44.0Q0.0 44.0 0.0 40.0Z" stroke="#323232" stroke-width="2.0" stroke-dasharray="none" opacity="1.0" fill="#ccffff"/><g id="ProcessOnG1029" transform="matrix(1.0,0.0,0.0,1.0,10.0,12.0)"><text id="ProcessOnText1030" fill="#000000" font-size="16" x="31.0" y="16.4" font-family="微软雅黑" font-weight="normal" font-style="normal" text-decoration="none" family="微软雅黑" text-anchor="middle" size="16">...</text></g></g><g id="ProcessOnG1031" transform="matrix(1.0,0.0,0.0,1.0,434.5,140.0)" opacity="1.0"><path id="ProcessOnPath1032" d="M0.0 4.0Q0.0 0.0 4.0 0.0L80.0 0.0Q84.0 0.0 84.0 4.0L84.0 40.0Q84.0 44.0 80.0 44.0L4.0 44.0Q0.0 44.0 0.0 40.0Z" stroke="#323232" stroke-width="2.0" stroke-dasharray="none" opacity="1.0" fill="#ccffff"/><g id="ProcessOnG1033" transform="matrix(1.0,0.0,0.0,1.0,10.0,12.0)"><text id="ProcessOnText1034" fill="#000000" font-size="16" x="31.0" y="16.4" font-family="微软雅黑" font-weight="normal" font-style="normal" text-decoration="none" family="微软雅黑" text-anchor="middle" size="16">Node</text></g></g><g id="ProcessOnG1035" transform="matrix(1.0,0.0,0.0,1.0,426.5,102.0)" opacity="1.0"><path id="ProcessOnPath1036" d="M0.0 0.0L100.0 0.0L100.0 38.0L0.0 38.0Z" stroke="none" stroke-width="0.0" stroke-dasharray="none" opacity="1.0" fill="none"/><g id="ProcessOnG1037" transform="matrix(1.0,0.0,0.0,1.0,0.0,9.0)"><text id="ProcessOnText1038" fill="#000000" font-size="16" x="49.0" y="16.4" font-family="微软雅黑" font-weight="normal" font-style="normal" text-decoration="none" family="微软雅黑" text-anchor="middle" size="16">闭散列表部分</text></g></g><g id="ProcessOnG1039" transform="matrix(1.0,0.0,0.0,1.0,81.0,140.0)" opacity="1.0"><path id="ProcessOnPath1040" d="M103.5 0.0Q94.5 0.0 94.5 9.0L94.5 57.0Q94.5 66.0 81.5 66.0Q94.5 66.0 94.5 75.0L94.5 123.0Q94.5 132.0 103.5 132.0" stroke="#323232" stroke-width="2.0" stroke-dasharray="none" opacity="1.0" fill="none"/><path id="ProcessOnPath1041" d="M0.0 0.0L103.5 0.0L103.5 132.0L0.0 132.0Z" stroke="none" stroke-width="0.0" stroke-dasharray="none" opacity="1.0" fill="none"/><g id="ProcessOnG1042" transform="matrix(1.0,0.0,0.0,1.0,0.0,46.0)"><text id="ProcessOnText1043" fill="#000000" font-size="16" x="74.5" y="16.4" font-family="微软雅黑" font-weight="normal" font-style="normal" text-decoration="none" family="微软雅黑" text-anchor="end" size="16">长度为siz</text><text id="ProcessOnText1044" fill="#000000" font-size="16" x="74.5" y="36.4" font-family="微软雅黑" font-weight="normal" font-style="normal" text-decoration="none" family="微软雅黑" text-anchor="end" size="16">earray</text></g></g><g id="ProcessOnG1045" transform="matrix(1.0,0.0,0.0,1.0,304.0,140.0)" opacity="1.0"><path id="ProcessOnPath1046" d="M122.5 0.0Q113.5 0.0 113.5 9.0L113.5 57.0Q113.5 66.0 100.5 66.0Q113.5 66.0 113.5 75.0L113.5 123.0Q113.5 132.0 122.5 132.0" stroke="#323232" stroke-width="2.0" stroke-dasharray="none" opacity="1.0" fill="none"/><path id="ProcessOnPath1047" d="M0.0 0.0L122.5 0.0L122.5 132.0L0.0 132.0Z" stroke="none" stroke-width="0.0" stroke-dasharray="none" opacity="1.0" fill="none"/><g id="ProcessOnG1048" transform="matrix(1.0,0.0,0.0,1.0,0.0,46.0)"><text id="ProcessOnText1049" fill="#000000" font-size="16" x="93.5" y="16.4" font-family="微软雅黑" font-weight="normal" font-style="normal" text-decoration="none" family="微软雅黑" text-anchor="end" size="16">长度为2^lsiz</text><text id="ProcessOnText1050" fill="#000000" font-size="16" x="93.5" y="36.4" font-family="微软雅黑" font-weight="normal" font-style="normal" text-decoration="none" family="微软雅黑" text-anchor="end" size="16">enode</text></g></g><g id="ProcessOnG1051" transform="matrix(1.0,0.0,0.0,1.0,200.5,297.0)" opacity="1.0"><path id="ProcessOnPath1052" d="M0.0 4.0Q0.0 0.0 4.0 0.0L80.0 0.0Q84.0 0.0 84.0 4.0L84.0 40.0Q84.0 44.0 80.0 44.0L4.0 44.0Q0.0 44.0 0.0 40.0Z" stroke="#323232" stroke-width="2.0" stroke-dasharray="none" opacity="1.0" fill="#ffcce6"/><g id="ProcessOnG1053" transform="matrix(1.0,0.0,0.0,1.0,10.0,12.0)"><text id="ProcessOnText1054" fill="#000000" font-size="16" x="31.0" y="16.4" font-family="微软雅黑" font-weight="normal" font-style="normal" text-decoration="none" family="微软雅黑" text-anchor="middle" size="16">Table*</text></g></g><g id="ProcessOnG1055" transform="matrix(1.0,0.0,0.0,1.0,160.5,300.0)" opacity="1.0"><path id="ProcessOnPath1056" d="M0.0 0.0L40.0 0.0L40.0 38.0L0.0 38.0Z" stroke="none" stroke-width="0.0" stroke-dasharray="none" opacity="1.0" fill="none"/><g id="ProcessOnG1057" transform="matrix(1.0,0.0,0.0,1.0,0.0,9.0)"><text id="ProcessOnText1058" fill="#000000" font-size="16" x="19.0" y="16.4" font-family="微软雅黑" font-weight="normal" font-style="normal" text-decoration="none" family="微软雅黑" text-anchor="middle" size="16">元表</text></g></g><g id="ProcessOnG1059" transform="matrix(1.0,0.0,0.0,1.0,84.0,62.0)" opacity="1.0"><path id="ProcessOnPath1060" d="M0.0 0.0L79.5 0.0L79.5 40.0L0.0 40.0Z" stroke="none" stroke-width="0.0" stroke-dasharray="none" opacity="1.0" fill="none"/><g id="ProcessOnG1061" transform="matrix(1.0,0.0,0.0,1.0,0.0,10.0)"><text id="ProcessOnText1062" fill="#000000" font-size="16" x="38.75" y="16.4" font-family="微软雅黑" font-weight="normal" font-style="normal" text-decoration="none" family="微软雅黑" text-anchor="middle" size="16">Table</text></g></g><g id="ProcessOnG1063" transform="matrix(1.0,0.0,0.0,1.0,596.0,169.0)" opacity="1.0"><path id="ProcessOnPath1064" d="M0.0 4.0Q0.0 0.0 4.0 0.0L107.0 0.0Q111.0 0.0 111.0 4.0L111.0 115.0Q111.0 119.0 107.0 119.0L4.0 119.0Q0.0 119.0 0.0 115.0Z" stroke="#323232" stroke-width="2.0" stroke-dasharray="none" opacity="1.0" fill="#ccffff"/></g><g id="ProcessOnG1065" transform="matrix(1.0,0.0,0.0,1.0,593.0,127.0)" opacity="1.0"><path id="ProcessOnPath1066" d="M0.0 0.0L110.0 0.0L110.0 42.0L0.0 42.0Z" stroke="none" stroke-width="0.0" stroke-dasharray="none" opacity="1.0" fill="none"/><g id="ProcessOnG1067" transform="matrix(1.0,0.0,0.0,1.0,0.0,11.0)"><text id="ProcessOnText1068" fill="#000000" font-size="16" x="54.0" y="16.4" font-family="微软雅黑" font-weight="normal" font-style="normal" text-decoration="none" family="微软雅黑" text-anchor="middle" size="16">一个Node节点</text></g></g><g id="ProcessOnG1069" transform="matrix(1.0,0.0,0.0,1.0,609.5,233.0)" opacity="1.0"><path id="ProcessOnPath1070" d="M0.0 4.0Q0.0 0.0 4.0 0.0L80.0 0.0Q84.0 0.0 84.0 4.0L84.0 40.0Q84.0 44.0 80.0 44.0L4.0 44.0Q0.0 44.0 0.0 40.0Z" stroke="#323232" stroke-width="2.0" stroke-dasharray="none" opacity="1.0" fill="#ffffcc"/><g id="ProcessOnG1071" transform="matrix(1.0,0.0,0.0,1.0,10.0,12.0)"><text id="ProcessOnText1072" fill="#000000" font-size="16" x="31.0" y="16.4" font-family="微软雅黑" font-weight="normal" font-style="normal" text-decoration="none" family="微软雅黑" text-anchor="middle" size="16">TKey</text></g></g><g id="ProcessOnG1073" transform="matrix(1.0,0.0,0.0,1.0,609.5,181.0)" opacity="1.0"><path id="ProcessOnPath1074" d="M0.0 4.0Q0.0 0.0 4.0 0.0L80.0 0.0Q84.0 0.0 84.0 4.0L84.0 40.0Q84.0 44.0 80.0 44.0L4.0 44.0Q0.0 44.0 0.0 40.0Z" stroke="#323232" stroke-width="2.0" stroke-dasharray="none" opacity="1.0" fill="#ffe6cc"/><g id="ProcessOnG1075" transform="matrix(1.0,0.0,0.0,1.0,10.0,12.0)"><text id="ProcessOnText1076" fill="#000000" font-size="16" x="31.0" y="16.4" font-family="微软雅黑" font-weight="normal" font-style="normal" text-decoration="none" family="微软雅黑" text-anchor="middle" size="16">TValue</text></g></g></g></g></svg>